<?xml version="1.0" encoding="utf-8"?>
<!-- Generator: Adobe Illustrator 21.0.0, SVG Export Plug-In . SVG Version: 6.00 Build 0)  -->
<svg version="1.1" id="Vrstva_2" xmlns="http://www.w3.org/2000/svg" xmlns:xlink="http://www.w3.org/1999/xlink" x="0px" y="0px"
	 viewBox="0 0 225 60" style="enable-background:new 0 0 225 60;" xml:space="preserve">
<style type="text/css">
	.st0{fill:#DC1E24;}
	.st1{fill:#EE3124;}
	.st2{fill:#FFFFFF;}
</style>
<g>
	<path class="st0" d="M212.9,57.5H13.4c-2.9,0-5.2-2.4-5.2-5.2v-42c0-2.9,2.4-5.2,5.2-5.2h199.5c2.9,0,5.2,2.4,5.2,5.2v42
		C218.1,55.2,215.8,57.5,212.9,57.5z"/>
	<path class="st1" d="M212.9,53.3H13.4c-2.9,0-5.2-2.4-5.2-5.2v-42c0-2.9,2.4-5.2,5.2-5.2h199.5c2.9,0,5.2,2.4,5.2,5.2v42
		C218.1,51,215.8,53.3,212.9,53.3z"/>
	<g>
		<path class="st2" d="M48.4,17.8h9.3c4.3,0,6.5,2.8,6.5,6.8c0,4.3-2.8,6.7-7.2,6.7h-3.4v4.9h-5.3V17.8z M53.7,22.2V27h3
			c1.4,0,2.3-0.9,2.3-2.5c0-1.2-0.7-2.3-2.3-2.3H53.7z"/>
		<path class="st2" d="M66,32.1V17.8h5.1v13.8c0,0.7,0.3,1,0.8,1h0.9v3.5h-2.6C67.3,36.1,66,34.8,66,32.1z"/>
		<path class="st2" d="M73.9,32.7c0-3,2.5-4.5,6-4.5h2.3c-0.1-1.5-1.1-1.8-2.4-1.8c-1.7,0-2.9,0.5-3.8,1.4l-1.7-2.8
			c1.4-1.5,3.6-2.3,6.4-2.3c3.7,0,6.6,1.4,6.6,5.7v7.8h-4.3l-0.3-1.8c-0.8,1.3-2.3,2.1-4.2,2.1C75.6,36.5,73.9,35.1,73.9,32.7z
			 M82.1,31.1v-0.3h-1.7c-1.4,0-2.1,0.5-2.1,1.5c0,0.8,0.5,1.3,1.6,1.3C81.3,33.5,82.1,32.6,82.1,31.1z"/>
		<path class="st2" d="M92.8,36.1L87.7,23h5.2l2.5,7.7l2.4-7.7h5.2l-6,15.6c-1,2.6-3.1,3.4-5.8,3.4c-1.3,0-2.3-0.2-3.2-0.6l0.4-3.5
			c0.7,0.3,1.4,0.5,2,0.5c1,0,1.7-0.4,2-1.4L92.8,36.1z"/>
		<path class="st2" d="M109.7,32.7c0-3,2.5-4.5,6-4.5h2.3c-0.1-1.5-1.1-1.8-2.4-1.8c-1.7,0-2.9,0.5-3.8,1.4l-1.7-2.8
			c1.4-1.5,3.6-2.3,6.4-2.3c3.7,0,6.6,1.4,6.6,5.7v7.8h-4.3l-0.3-1.8c-0.8,1.3-2.3,2.1-4.2,2.1C111.4,36.5,109.7,35.1,109.7,32.7z
			 M117.9,31.1v-0.3h-1.7c-1.4,0-2.1,0.5-2.1,1.5c0,0.8,0.5,1.3,1.6,1.3C117.1,33.5,117.9,32.6,117.9,31.1z"/>
		<path class="st2" d="M139.2,35.4c0,4.5-3.3,6.6-7.8,6.6c-2.6,0-5.1-0.8-6.2-2.8l2.7-2.5c0.8,1.2,1.9,1.7,3.3,1.7
			c1.9,0,2.9-1,2.9-3v-1.6c-0.8,1.3-2,2-3.9,2c-3.2,0-5.5-2.2-5.5-6.6c0-4.5,2.4-6.7,5.8-6.7c1.9,0,3.3,0.7,4.2,2.2l0.4-1.8h4.1
			V35.4z M131.8,26.3c-1.4,0-2.2,1-2.2,3c0,2.1,0.8,3,2.2,3c1.4,0,2.3-1.1,2.3-3.1C134.1,27.3,133.2,26.3,131.8,26.3z"/>
		<path class="st2" d="M141.1,32.7c0-3,2.5-4.5,6-4.5h2.3c-0.1-1.5-1.1-1.8-2.4-1.8c-1.7,0-2.9,0.5-3.8,1.4l-1.7-2.8
			c1.4-1.5,3.6-2.3,6.4-2.3c3.7,0,6.6,1.4,6.6,5.7v7.8H150l-0.3-1.8c-0.8,1.3-2.3,2.1-4.2,2.1C142.8,36.5,141.1,35.1,141.1,32.7z
			 M149.3,31.1v-0.3h-1.7c-1.4,0-2.1,0.5-2.1,1.5c0,0.8,0.5,1.3,1.6,1.3C148.5,33.5,149.3,32.6,149.3,31.1z"/>
		<path class="st2" d="M159.3,16.7c1.8,0,2.8,0.8,2.8,2.5c0,1.7-1,2.4-2.8,2.4c-1.8,0-2.8-0.8-2.8-2.4
			C156.5,17.5,157.5,16.7,159.3,16.7z M161.9,23v13.2h-5.1V23H161.9z"/>
		<path class="st2" d="M168.6,23l0.4,2.3c1-1.7,2.7-2.7,4.8-2.7c3.5,0,4.9,2.2,4.9,5.2v8.3h-5.1v-6.5c0-2-0.6-2.6-1.9-2.6
			s-2.2,0.9-2.2,2.7v6.4h-5.1V23H168.6z"/>
	</g>
</g>
</svg>
