<?xml version="1.0" encoding="utf-8"?>
<!-- Generator: Adobe Illustrator 21.0.0, SVG Export Plug-In . SVG Version: 6.00 Build 0)  -->
<svg version="1.1" id="Vrstva_3" xmlns="http://www.w3.org/2000/svg" xmlns:xlink="http://www.w3.org/1999/xlink" x="0px" y="0px"
	 viewBox="0 0 225 60" style="enable-background:new 0 0 225 60;" xml:space="preserve">
<style type="text/css">
	.st0{fill:#00C800;}
	.st1{fill:#00FF00;}
	.st2{fill:#FFFFFF;}
</style>
<g>
	<path class="st0" d="M212.8,57.6H13.3c-2.9,0-5.2-2.4-5.2-5.2v-42c0-2.9,2.4-5.2,5.2-5.2h199.5c2.9,0,5.2,2.4,5.2,5.2v42
		C218.1,55.2,215.7,57.6,212.8,57.6z"/>
	<path class="st1" d="M212.8,53.4H13.3c-2.9,0-5.2-2.4-5.2-5.2v-42c0-2.9,2.4-5.2,5.2-5.2h199.5c2.9,0,5.2,2.4,5.2,5.2v42
		C218.1,51,215.7,53.4,212.8,53.4z"/>
	<g>
		<path class="st2" d="M34.8,23.4c-0.9-1.3-1.9-1.9-3.6-1.9c-1.9,0-2.5,0.7-2.5,1.5s0.7,1.3,2.5,1.7l1.7,0.4c4.5,1,5.8,3.1,5.8,5.7
			c0,3.5-2.7,5.9-7.8,5.9c-3,0-6-0.8-7.5-3.6l3.2-2.5c0.9,1.7,2.2,2.4,4.2,2.4c1.8,0,2.9-0.6,2.9-1.6c0-0.9-0.5-1.3-2.2-1.7
			l-1.8-0.4c-4.4-1-5.7-3.4-5.7-5.8c0-3.5,2.5-5.9,7.2-5.9c3,0,5.6,0.9,7,3.5L34.8,23.4z"/>
		<path class="st2" d="M40.2,29.8c0-4.4,2.6-7.1,7-7.1c4.6,0,6.5,3,6.5,6.8c0,0.5,0,1-0.1,1.5H45c0.2,1.6,1.2,2.3,2.8,2.3
			c1.2,0,2.1-0.4,2.6-1.4l2.9,1.9c-1.1,1.9-3.2,2.9-6,2.9C43.1,36.6,40.2,34.4,40.2,29.8z M45,28.3h4.1c-0.1-1.4-0.7-2.2-1.9-2.2
			C46,26.2,45.1,26.9,45,28.3z"/>
		<path class="st2" d="M59.9,23.1l0.4,2.3c1-1.7,2.7-2.7,4.8-2.7c3.5,0,4.9,2.2,4.9,5.2v8.3h-5.1v-6.5c0-2-0.6-2.6-1.9-2.6
			s-2.2,0.9-2.2,2.7v6.4h-5.1V23.1H59.9z"/>
		<path class="st2" d="M81.8,34.3c-0.9,1.5-2.3,2.3-4.4,2.3c-3.3,0-5.6-2.3-5.6-6.8c0-4.8,2.4-7.2,5.8-7.2c1.6,0,2.8,0.6,3.6,1.6
			v-6.4h5.1v18.4h-4.3L81.8,34.3z M78.9,26.4c-1.4,0-2.2,0.9-2.2,3.3c0,2.1,0.7,3.2,2.2,3.2c1.4,0,2.4-1,2.4-3.2
			C81.3,27.3,80.3,26.4,78.9,26.4z"/>
		<path class="st2" d="M95.7,23.1v-3.7h5v3.7h3.4v3.7h-3.4v4.5c0,1.2,0.6,1.8,1.7,1.8c0.6,0,1.1-0.1,1.6-0.4l0.7,3
			c-1,0.6-2.3,0.9-3.8,0.9c-2.8,0-5.2-1.1-5.2-4.9v-5h-1.9v-3.7H95.7z"/>
		<path class="st2" d="M112.5,22.7c4.8,0,7.2,2.2,7.2,7c0,4.6-2.5,7-7.2,7c-4.8,0-7.2-2.3-7.2-7C105.3,24.9,108,22.7,112.5,22.7z
			 M112.5,26.5c-1.7,0-2.4,1-2.4,3.2c0,2.3,0.7,3.3,2.4,3.3c1.7,0,2.4-1,2.4-3.3C114.9,27.4,114.2,26.5,112.5,26.5z"/>
		<path class="st2" d="M128.5,23.1v-0.7c0-3.8,2.2-5.4,5.4-5.4c1.2,0,2.8,0.2,3.6,0.9l-0.9,3.1c-0.4-0.3-0.9-0.4-1.4-0.4
			c-1.1,0-1.6,0.6-1.6,1.9v0.7h3.3v3.7h-3.3v9.5h-5v-9.5h-2v-3.7H128.5z"/>
		<path class="st2" d="M138.1,23.1h4.2l0.4,2.5c0.9-1.8,2.5-3,4.6-3l0.1,4.8c-2.8-0.2-4.1,1.5-4.1,4.1v4.7h-5.1V23.1z"/>
		<path class="st2" d="M151.4,16.8c1.8,0,2.8,0.8,2.8,2.5c0,1.7-1,2.4-2.8,2.4c-1.8,0-2.8-0.8-2.8-2.4
			C148.6,17.6,149.6,16.8,151.4,16.8z M153.9,23.1v13.2h-5.1V23.1H153.9z"/>
		<path class="st2" d="M155.8,29.8c0-4.4,2.6-7.1,7-7.1c4.6,0,6.5,3,6.5,6.8c0,0.5,0,1-0.1,1.5h-8.6c0.2,1.6,1.2,2.3,2.8,2.3
			c1.2,0,2.1-0.4,2.6-1.4l2.9,1.9c-1.1,1.9-3.2,2.9-6,2.9C158.7,36.6,155.8,34.4,155.8,29.8z M160.6,28.3h4.1
			c-0.1-1.4-0.7-2.2-1.9-2.2C161.5,26.2,160.7,26.9,160.6,28.3z"/>
		<path class="st2" d="M175.4,23.1l0.4,2.3c1-1.7,2.7-2.7,4.8-2.7c3.5,0,4.9,2.2,4.9,5.2v8.3h-5.1v-6.5c0-2-0.6-2.6-1.9-2.6
			s-2.2,0.9-2.2,2.7v6.4h-5.1V23.1H175.4z"/>
		<path class="st2" d="M197.4,34.3c-0.9,1.5-2.3,2.3-4.4,2.3c-3.3,0-5.6-2.3-5.6-6.8c0-4.8,2.4-7.2,5.8-7.2c1.6,0,2.8,0.6,3.6,1.6
			v-6.4h5.1v18.4h-4.3L197.4,34.3z M194.5,26.4c-1.4,0-2.2,0.9-2.2,3.3c0,2.1,0.7,3.2,2.2,3.2c1.4,0,2.4-1,2.4-3.2
			C196.9,27.3,195.9,26.4,194.5,26.4z"/>
	</g>
</g>
</svg>
