<?xml version="1.0" encoding="utf-8"?>
<!-- Generator: Adobe Illustrator 21.0.0, SVG Export Plug-In . SVG Version: 6.00 Build 0)  -->
<svg version="1.1" id="Vrstva_2" xmlns="http://www.w3.org/2000/svg" xmlns:xlink="http://www.w3.org/1999/xlink" x="0px" y="0px"
	 viewBox="0 0 225 60" style="enable-background:new 0 0 225 60;" xml:space="preserve">
<style type="text/css">
	.st0{fill:#DC1E24;}
	.st1{fill:#EE3124;}
	.st2{fill:#FFFFFF;}
</style>
<g>
	<path class="st0" d="M212.8,57.6H13.3c-2.9,0-5.2-2.4-5.2-5.2v-42c0-2.9,2.4-5.2,5.2-5.2h199.5c2.9,0,5.2,2.4,5.2,5.2v42
		C218.1,55.2,215.7,57.6,212.8,57.6z"/>
	<path class="st1" d="M212.8,53.4H13.3c-2.9,0-5.2-2.4-5.2-5.2v-42c0-2.9,2.4-5.2,5.2-5.2h199.5c2.9,0,5.2,2.4,5.2,5.2v42
		C218.1,51,215.7,53.4,212.8,53.4z"/>
	<g>
		<path class="st2" d="M72.3,26.6c0-6.3,2.9-9.1,8.9-9.1c3.6,0,6.1,1.3,7.2,4.3l-4,1.9c-0.7-1.6-1.5-2.1-3.2-2.1
			c-2.3,0-3.7,1.1-3.7,5c0,3.8,1.4,5,3.8,5c1.6,0,2.7-0.7,3.3-2.2l4.1,1.9c-1.2,2.8-3.6,4.4-7.6,4.4C75.1,35.7,72.3,32.7,72.3,26.6z
			"/>
		<path class="st2" d="M89.9,32.1c0-2.9,2.4-4.3,5.7-4.3h2.1c-0.1-1.4-1-1.8-2.3-1.8c-1.6,0-2.8,0.5-3.6,1.3l-1.6-2.7
			c1.3-1.5,3.4-2.2,6-2.2c3.5,0,6.3,1.3,6.3,5.5v7.4h-4.1l-0.3-1.7c-0.8,1.3-2.1,2-4,2C91.6,35.7,89.9,34.4,89.9,32.1z M97.7,30.6
			v-0.3h-1.6c-1.3,0-2,0.5-2,1.4c0,0.7,0.5,1.2,1.5,1.2C97,32.8,97.7,32,97.7,30.6z"/>
		<path class="st2" d="M108.8,22.8l0.4,2.2c1-1.6,2.6-2.6,4.6-2.6c3.3,0,4.7,2.1,4.7,5v7.9h-4.8v-6.2c0-1.9-0.6-2.5-1.8-2.5
			c-1.2,0-2.1,0.8-2.1,2.6v6.1h-4.8V22.8H108.8z"/>
		<path class="st2" d="M120.3,29.1c0-4.6,2.5-6.6,6.8-6.6c2.6,0,4.4,0.8,5.5,2.8l-3.3,2.4c-0.5-1-1.2-1.4-2.1-1.4
			c-1.4,0-2.3,0.6-2.3,2.9c0,1.9,0.6,3,2.2,3c1.2,0,2-0.5,2.3-1.4l3.3,1.9c-1.1,2-2.9,3.1-5.9,3.1C122.9,35.7,120.3,33.8,120.3,29.1
			z"/>
		<path class="st2" d="M133.6,29.2c0-4.2,2.4-6.7,6.6-6.7c4.4,0,6.2,2.9,6.2,6.5c0,0.5,0,0.9-0.1,1.5h-8.1c0.2,1.5,1.2,2.1,2.7,2.1
			c1.2,0,2-0.4,2.5-1.3l2.8,1.8c-1,1.8-3.1,2.7-5.7,2.7C136.3,35.7,133.6,33.6,133.6,29.2z M138.1,27.8h3.9c-0.1-1.3-0.7-2-1.8-2
			C139,25.8,138.3,26.5,138.1,27.8z"/>
		<path class="st2" d="M148.3,31.5V17.9h4.8V31c0,0.7,0.2,1,0.8,1h0.8v3.4h-2.5C149.5,35.4,148.3,34.1,148.3,31.5z"/>
	</g>
</g>
</svg>
