<?xml version="1.0" encoding="utf-8"?>
<!-- Generator: Adobe Illustrator 21.0.0, SVG Export Plug-In . SVG Version: 6.00 Build 0)  -->
<svg version="1.1" id="Vrstva_1" xmlns="http://www.w3.org/2000/svg" xmlns:xlink="http://www.w3.org/1999/xlink" x="0px" y="0px"
	 viewBox="0 0 50 55" style="enable-background:new 0 0 50 55;" xml:space="preserve">
<style type="text/css">
	.st0{fill:#EE3124;}
	.st1{fill:#00FF00;}
	.st2{fill:#00BA00;}
</style>
<g>
	<g>
		<path class="st0" d="M24.8,16.9h-13c-1.3,0-2.4-0.8-2.8-2c-0.5-1.8-1.8-7.9,1.1-11c1.3-1.3,3.1-1.9,5.2-1.6
			c7.1,1,11.5,9.8,12,10.8c0.4,0.8,0.3,1.8-0.2,2.6C26.7,16.5,25.8,16.9,24.8,16.9z M14.2,11.5h5.5c-1.4-1.8-3.3-3.5-5.2-3.8
			c-0.1,0-0.1,0-0.2,0C14,8.2,14,9.8,14.2,11.5z"/>
		<path class="st0" d="M39.3,16.9h-13c-1,0-1.9-0.5-2.4-1.2c-0.5-0.8-0.6-1.8-0.2-2.6c0.5-1,4.9-9.7,12-10.8
			c2.1-0.3,3.9,0.3,5.2,1.6c2.9,3.1,1.6,9.2,1.1,11C41.7,16.1,40.6,16.9,39.3,16.9z M31.4,11.5H37c0.2-1.7,0.2-3.3-0.2-3.8
			c0,0-0.1,0-0.2,0C34.7,8,32.8,9.7,31.4,11.5z"/>
	</g>
	<g>
		<rect x="5.4" y="17.2" class="st1" width="40.4" height="35.1"/>
		<rect x="5.4" y="24.1" class="st2" width="40.4" height="8"/>
		<rect x="3.1" y="15.1" class="st1" width="45" height="12.3"/>
		<rect x="22.7" y="14.3" class="st0" width="5.7" height="37.9"/>
	</g>
</g>
</svg>
