<?xml version="1.0" encoding="utf-8"?>
<!-- Generator: Adobe Illustrator 21.0.0, SVG Export Plug-In . SVG Version: 6.00 Build 0)  -->
<svg version="1.1" id="Vrstva_1" xmlns="http://www.w3.org/2000/svg" xmlns:xlink="http://www.w3.org/1999/xlink" x="0px" y="0px"
	 viewBox="0 0 185 225" style="enable-background:new 0 0 185 225;" xml:space="preserve">
<style type="text/css">
	.st0{fill:#EE3124;}
	.st1{fill:#DC1E24;}
	.st2{fill:#FFFFFF;}
	.st3{fill:#BAE7F7;}
	.st4{fill:#506E8A;}
	.st5{fill:#607C8A;}
</style>
<g>
	<rect x="59.6" y="17.7" class="st0" width="64.4" height="59.7"/>
	<rect x="59.6" y="17.7" class="st1" width="64.4" height="21.9"/>
	<rect x="50.7" y="2.8" class="st0" width="82.3" height="26.5"/>
	<rect x="50.7" y="2.8" class="st0" width="82.3" height="26.5"/>
	<rect x="57.6" y="2.8" class="st1" width="22.1" height="12.5"/>
	<rect x="15.5" y="64.1" class="st2" width="154.5" height="158.1"/>
	<rect x="15.5" y="214.9" class="st3" width="154.5" height="7.2"/>
	<rect x="15.5" y="64.1" class="st3" width="154.5" height="71.1"/>
	<polygon class="st4" points="182.7,126.1 2.7,126.1 12.5,55.2 172.9,55.2 	"/>
	<rect x="19.9" y="101" class="st5" width="145.7" height="2"/>
	<rect x="22.8" y="75.9" class="st5" width="139.8" height="2"/>
	<rect x="72.1" y="142.1" class="st5" width="41.2" height="65"/>
	<rect x="82.3" y="153" class="st4" width="20.8" height="17.6"/>
	<rect x="63.1" y="207.1" class="st4" width="59.1" height="7.9"/>
	<rect x="53.3" y="214.9" class="st4" width="78.7" height="7.9"/>
	<ellipse class="st4" cx="83.8" cy="179.5" rx="2" ry="2"/>
	<g>
		<rect x="127.4" y="153" class="st3" width="26.7" height="45.2"/>
		<rect x="139.3" y="153.2" class="st4" width="2.9" height="40.7"/>
	</g>
	<g>
		<rect x="31.3" y="153" class="st3" width="26.7" height="45.2"/>
		<rect x="43.1" y="153.2" class="st4" width="2.9" height="40.7"/>
		<rect x="126.3" y="172.1" class="st4" width="28.8" height="2.9"/>
		<rect x="30.2" y="172.1" class="st4" width="27.8" height="2.9"/>
	</g>
	<path class="st4" d="M155.6,194.8h-29.6v-43.3h29.6V194.8z M128.9,191.8h23.7v-37.4h-23.7V191.8z"/>
	<path class="st4" d="M59.4,194.8H29.8v-43.3h29.6V194.8z M32.7,191.8h23.7v-37.4H32.7V191.8z"/>
	<path class="st2" d="M94.1,55.4c-2.4-3-6.1-4.9-10.3-4.9c-2.4,0-4.6,0.6-6.6,1.8c-3.1-4.1-8-6.7-13.6-6.7c-4.1,0-7.8,1.4-10.7,3.8
		c-3.1-3.5-7.7-5.8-12.8-5.8c-7.6,0-14,5-16.3,11.8H94.1z"/>
</g>
</svg>
