<?xml version="1.0" encoding="utf-8"?>
<!-- Generator: Adobe Illustrator 21.0.0, SVG Export Plug-In . SVG Version: 6.00 Build 0)  -->
<svg version="1.1" id="Vrstva_1" xmlns="http://www.w3.org/2000/svg" xmlns:xlink="http://www.w3.org/1999/xlink" x="0px" y="0px"
	 viewBox="0 0 225 60" style="enable-background:new 0 0 225 60;" xml:space="preserve">
<style type="text/css">
	.st0{fill:#DC1E24;}
	.st1{fill:#EE3124;}
	.st2{fill:#FFFFFF;}
</style>
<g>
	<path class="st0" d="M212.9,57.5H13.4c-2.9,0-5.2-2.4-5.2-5.2v-42c0-2.9,2.4-5.2,5.2-5.2h199.5c2.9,0,5.2,2.4,5.2,5.2v42
		C218.1,55.2,215.8,57.5,212.9,57.5z"/>
	<path class="st1" d="M212.9,53.3H13.4c-2.9,0-5.2-2.4-5.2-5.2v-42c0-2.9,2.4-5.2,5.2-5.2h199.5c2.9,0,5.2,2.4,5.2,5.2v42
		C218.1,51,215.8,53.3,212.9,53.3z"/>
	<g>
		<path class="st2" d="M51.3,23c-0.8-1.2-1.8-1.8-3.4-1.8c-1.8,0-2.4,0.6-2.4,1.5c0,0.8,0.6,1.3,2.3,1.6l1.6,0.3
			c4.3,1,5.5,2.9,5.5,5.4c0,3.4-2.5,5.6-7.4,5.6c-2.8,0-5.7-0.8-7.1-3.4l3.1-2.4c0.9,1.6,2.1,2.2,4,2.2c1.7,0,2.8-0.5,2.8-1.5
			c0-0.8-0.5-1.2-2.1-1.6l-1.7-0.4c-4.2-1-5.4-3.3-5.4-5.5c0-3.3,2.4-5.6,6.9-5.6c2.9,0,5.3,0.9,6.7,3.3L51.3,23z"/>
		<path class="st2" d="M61.7,24.9c0.9-1.6,2.4-2.6,4.2-2.6c3.1,0,4.5,2.1,4.5,5v7.9h-4.8v-6.2c0-1.9-0.6-2.5-1.8-2.5
			c-1.2,0-2.1,0.8-2.1,2.6v6.1h-4.8V17.8h4.8V24.9z"/>
		<path class="st2" d="M72.3,32c0-2.9,2.4-4.3,5.7-4.3h2.1c-0.1-1.4-1-1.8-2.3-1.8c-1.6,0-2.8,0.5-3.6,1.3l-1.6-2.7
			c1.3-1.5,3.4-2.2,6-2.2c3.5,0,6.3,1.3,6.3,5.5v7.4h-4.1l-0.3-1.7c-0.8,1.3-2.1,2-4,2C73.9,35.6,72.3,34.3,72.3,32z M80.1,30.5
			v-0.3h-1.6c-1.3,0-2,0.5-2,1.4c0,0.7,0.5,1.2,1.5,1.2C79.3,32.7,80.1,31.9,80.1,30.5z"/>
		<path class="st2" d="M87.2,22.7h4l0.4,2.4c0.9-1.8,2.4-2.8,4.3-2.8l0,4.6c-2.7-0.2-3.9,1.4-3.9,3.9v4.5h-4.8V22.7z"/>
		<path class="st2" d="M97.1,29.1c0-4.2,2.5-6.7,6.6-6.7c4.4,0,6.2,2.9,6.2,6.5c0,0.5,0,0.9-0.1,1.5h-8.1c0.2,1.5,1.2,2.1,2.7,2.1
			c1.2,0,2-0.4,2.5-1.3l2.8,1.8c-1,1.8-3.1,2.7-5.7,2.7C99.8,35.6,97.1,33.5,97.1,29.1z M101.6,27.7h3.9c-0.1-1.3-0.7-2-1.8-2
			C102.5,25.7,101.7,26.4,101.6,27.7z"/>
		<path class="st2" d="M123.8,22.4c4.6,0,6.8,2.1,6.8,6.6c0,4.4-2.4,6.6-6.8,6.6c-4.5,0-6.8-2.2-6.8-6.6
			C117,24.5,119.6,22.4,123.8,22.4z M123.8,25.9c-1.7,0-2.3,0.9-2.3,3.1c0,2.2,0.7,3.1,2.3,3.1c1.6,0,2.3-1,2.3-3.1
			C126.1,26.9,125.4,25.9,123.8,25.9z"/>
		<path class="st2" d="M136.5,22.7l0.4,2.2c0.9-1.6,2.6-2.6,4.6-2.6c3.3,0,4.7,2.1,4.7,5v7.9h-4.8v-6.2c0-1.9-0.6-2.5-1.8-2.5
			c-1.2,0-2.1,0.8-2.1,2.6v6.1h-4.8V22.7H136.5z"/>
		<path class="st2" d="M155,17.8h13.6v4H160v3.1h7.3V29H160v6.2h-5V17.8z"/>
		<path class="st2" d="M170.5,17.8h9.4c3.6,0,5.2,2,5.2,4.7c0,1.6-0.9,2.9-2.2,3.6c1.9,0.5,2.6,2.3,2.6,4.1c0,3.3-2,5-5.9,5h-9.2
			V17.8z M175.4,21.4v3.3h3.2c1.1,0,1.6-0.7,1.6-1.7c0-1-0.6-1.7-1.6-1.7H175.4z M175.4,28.3v3.4h3.4c1.2,0,1.8-0.6,1.8-1.7
			c0-1-0.5-1.7-1.6-1.7H175.4z"/>
	</g>
</g>
</svg>
