<?xml version="1.0" encoding="utf-8"?>
<!-- Generator: Adobe Illustrator 20.1.0, SVG Export Plug-In . SVG Version: 6.00 Build 0)  -->
<svg version="1.1"
	 id="svg3261" inkscape:version="0.48.3.1 r9886" sodipodi:docname="New document 3" xmlns:cc="http://creativecommons.org/ns#" xmlns:dc="http://purl.org/dc/elements/1.1/" xmlns:inkscape="http://www.inkscape.org/namespaces/inkscape" xmlns:rdf="http://www.w3.org/1999/02/22-rdf-syntax-ns#" xmlns:sodipodi="http://sodipodi.sourceforge.net/DTD/sodipodi-0.dtd" xmlns:svg="http://www.w3.org/2000/svg"
	 xmlns="http://www.w3.org/2000/svg" xmlns:xlink="http://www.w3.org/1999/xlink" x="0px" y="0px" viewBox="0 0 210.5 138.1"
	 style="enable-background:new 0 0 160.5 110;" xml:space="preserve">
<style type="text/css">
	.st0{fill:#EE3124;}
	.st1{fill:#00FF00;}
	.st2{fill:#00BA00;}
	.st3{fill:#FF6600;stroke:#000000;}
	.st4{stroke:#000000;stroke-linecap:round;stroke-linejoin:round;}
	.st5{fill:#008033;stroke:#000000;}
	.st6{fill:url(#rect3983_1_);stroke:#000000;stroke-linecap:round;stroke-linejoin:round;}
	.st7{fill:#AA0000;}
	.st8{fill:url(#path3989_1_);stroke:#000000;}
	.st9{fill:#803300;stroke:#000000;}
	.st10{fill:#FFFFFF;stroke:#000000;}
	.st11{fill:#803300;}
	.st12{fill:#FF2A2A;stroke:#000000;}
	.st13{opacity:0.786;}
	.st14{fill:#FFFFFF;}
	.st15{fill:#E75D00;}
	.st16{fill:url(#path3178_1_);}
	.st17{fill:url(#path4283_1_);}
	.st18{fill:url(#path4306_1_);}
	.st19{fill:#BAE7F7;}
	.st20{fill:#506E8A;}
</style>
<g>
	<g>
		<path class="st0" d="M140.8,33.1h-13c-1.3,0-2.4-0.8-2.8-2c-0.5-1.8-1.8-7.9,1.1-11c1.3-1.3,3.1-1.9,5.2-1.6
			c7.1,1,11.5,9.8,12,10.8c0.4,0.8,0.3,1.8-0.2,2.6C142.7,32.6,141.8,33.1,140.8,33.1z M130.3,27.7h5.5c-1.4-1.8-3.3-3.6-5.2-3.8
			c-0.1,0-0.1,0-0.2,0C130.1,24.4,130,26,130.3,27.7z"/>
		<path class="st0" d="M155.4,33.1h-13c-1,0-1.9-0.5-2.4-1.2c-0.5-0.8-0.6-1.8-0.2-2.6c0.5-1,4.9-9.7,12-10.8
			c2.1-0.3,3.9,0.3,5.2,1.6c2.9,3.1,1.6,9.2,1.1,11C157.8,32.3,156.7,33.1,155.4,33.1z M147.5,27.7h5.5c0.2-1.7,0.2-3.3-0.2-3.9
			c0,0-0.1,0-0.2,0C150.8,24.1,148.9,25.8,147.5,27.7z"/>
	</g>
	<g>
		<rect x="121.4" y="33.3" class="st1" width="40.4" height="35.1"/>
		<rect x="121.4" y="40.3" class="st2" width="40.4" height="8"/>
		<rect x="119.1" y="31.3" class="st1" width="45" height="12.3"/>
		<rect x="138.8" y="30.5" class="st0" width="5.7" height="37.9"/>
	</g>
</g>
<ellipse class="st0" cx="92.2" cy="54.7" rx="26.7" ry="26.8"/>
<sodipodi:namedview  bordercolor="#666666" borderopacity="1.0" fit-margin-bottom="0" fit-margin-left="0" fit-margin-right="0" fit-margin-top="0" id="base" inkscape:current-layer="layer1" inkscape:cx="151.81329" inkscape:cy="72.663634" inkscape:document-units="px" inkscape:pageopacity="0.0" inkscape:pageshadow="2" inkscape:window-height="744" inkscape:window-maximized="1" inkscape:window-width="1317" inkscape:window-x="49" inkscape:window-y="24" inkscape:zoom="0.98994949" pagecolor="#ffffff" showgrid="false">
	</sodipodi:namedview>
<path id="path3998" inkscape:export-filename="/home/special-k/ubuplane.png" inkscape:export-xdpi="299.95239" inkscape:export-ydpi="299.95239" sodipodi:cx="693.72229" sodipodi:cy="156.43207" sodipodi:rx="1.6414979" sodipodi:ry="1.6414979" sodipodi:type="arc" d="
	M185.9,103.1c2.8,0,5,2.2,5,5c0,2.8-2.2,5-5,5c-2.8,0-5-2.2-5-5C180.9,105.3,183.1,103.1,185.9,103.1z"/>
<path id="path4011" inkscape:connector-curvature="0" inkscape:export-filename="/home/special-k/ubuplane.png" inkscape:export-xdpi="299.95239" inkscape:export-ydpi="299.95239" sodipodi:nodetypes="ssccs" class="st3" d="
	M55.6,81c11.4,2.3,65.5,18.9,57.4-0.7L52.7,67.1c-7.2-4.6-62.2,0.5-46.6,3.7L55.6,81L55.6,81z"/>
<g id="g3152" transform="matrix(4.81257,0.08353944,0.28227536,4.8157834,-3424.45,-3856.2482)" inkscape:export-filename="/home/special-k/ubuplane.png" inkscape:export-xdpi="299.95239" inkscape:export-ydpi="299.95239">
	<path id="path3146" inkscape:connector-curvature="0" sodipodi:nodetypes="ccccc" class="st3" d="M672.1,806.4l0.6,5.9l4.5-0.3
		l3.8-7.5L672.1,806.4z"/>
	
		<path id="path3148" sodipodi:cx="781.54242" sodipodi:cy="140.08023" sodipodi:rx="4.6088209" sodipodi:ry="4.6088209" sodipodi:type="arc" class="st4" d="
		M675,810.8c-1,0-1.9,0.9-2,1.9c-0.1,1,0.6,1.8,1.6,1.7c1,0,1.9-0.9,2-1.9C676.7,811.5,676,810.7,675,810.8z"/>
	<path id="path3150" inkscape:connector-curvature="0" sodipodi:nodetypes="sssss" class="st5" d="M675.1,810.2
		c-1.8,0-3.4,1.4-3.5,2.2s1.4,0.5,3.1,0.5c1.8,0,3.2,0.2,3.3-0.6C678.1,811.6,676.9,810.2,675.1,810.2z"/>
</g>
<linearGradient id="rect3983_1_" gradientUnits="userSpaceOnUse" x1="-16.0766" y1="-216.6739" x2="-16.1488" y2="-228.7998" gradientTransform="matrix(-5.3359 0 0 -5.3359 27.4956 -1106.8364)">
	<stop  offset="0" style="stop-color:#FF2A2A"/>
	<stop  offset="1" style="stop-color:#D40000"/>
</linearGradient>
<path id="rect3983" inkscape:connector-curvature="0" inkscape:export-filename="/home/special-k/ubuplane.png" inkscape:export-xdpi="299.95239" inkscape:export-ydpi="299.95239" sodipodi:nodetypes="sccscccccs" class="st6" d="
	M190.3,73.5c4.7-3.7,8.6,1.3,8.6,7.3c-0.5,4.6-0.3,16.7-11.8,24c-67.2-4.5-104,12.6-159,0.9L36,39.9L66.2,45
	c0,0,12.9,13.5,34.7,16.8c22.4-1.9,15.1-9.8,15-19.9c23.6,5.3,43.2,32.9,67.5,37.1L190.3,73.5L190.3,73.5z"/>
<path id="path3188" inkscape:connector-curvature="0" inkscape:export-filename="/home/special-k/ubuplane.png" inkscape:export-xdpi="299.95239" inkscape:export-ydpi="299.95239" class="st7" d="
	M31.4,104.7c16.7,3.2,33.5,4,50.8,3.4l19.4-9.9L68.2,84.4L31.4,104.7z"/>
<linearGradient id="path3989_1_" gradientUnits="userSpaceOnUse" x1="-4.6363" y1="530.7818" x2="2.6902" y2="531.5081" gradientTransform="matrix(-5.3359 0 0 -5.3359 27.4956 2907.7212)">
	<stop  offset="0" style="stop-color:#FF6600"/>
	<stop  offset="1" style="stop-color:#D45500"/>
</linearGradient>
<path id="path3989" inkscape:connector-curvature="0" inkscape:export-filename="/home/special-k/ubuplane.png" inkscape:export-xdpi="299.95239" inkscape:export-ydpi="299.95239" sodipodi:nodetypes="zccszzz" class="st8" d="
	M23.6,48.8c-2.6,6.7-6.7,34.4-5.2,44.6c1.5,10.2,3.6,11.7,9.8,13.1c5,1.1,10,1.2,15.1,2.1c14.6-3.9,26.7-53.4,7.6-66.1
	c0,0-10-1.8-14.8-2.5S26.2,42.1,23.6,48.8z"/>
<path id="path3476" inkscape:connector-curvature="0" inkscape:export-filename="/home/special-k/ubuplane.png" inkscape:export-xdpi="299.95239" inkscape:export-ydpi="299.95239" sodipodi:nodetypes="cszzc" class="st9" d="
	M33.7,46.7c-3.8-0.5-7.8,1.7-9.8,7.1c-2.1,5.3-5.3,27.4-4.1,35.6c1.1,8.1,3.4,10.1,7.7,10.4C42,100.9,47,48.2,33.7,46.7L33.7,46.7z"
	/>
<path id="path3994" inkscape:connector-curvature="0" inkscape:export-filename="/home/special-k/ubuplane.png" inkscape:export-xdpi="299.95239" inkscape:export-ydpi="299.95239" sodipodi:nodetypes="zzzzz" class="st10" d="
	M41.5,43.3C40.4,45.2,9.9,91.9,10,94.7c0.1,2.8,0,6,2.6,8.2c2.6,2.2,19.5-73.2,23.5-71.9C40.2,32.2,42.7,41.5,41.5,43.3L41.5,43.3z"
	/>
<path id="path3996" inkscape:export-filename="/home/special-k/ubuplane.png" inkscape:export-xdpi="299.95239" inkscape:export-ydpi="299.95239" sodipodi:cx="787.47705" sodipodi:cy="140.2065" sodipodi:rx="1.7046324" sodipodi:ry="1.7046324" sodipodi:type="arc" d="
	M23,76.6c2.9,0,5.2-2.3,5.2-5.2c0-2.9-2.3-5.2-5.2-5.2s-5.2,2.3-5.2,5.2C17.8,74.3,20.1,76.6,23,76.6z"/>
<path id="path4000" inkscape:connector-curvature="0" inkscape:export-filename="/home/special-k/ubuplane.png" inkscape:export-xdpi="299.95239" inkscape:export-ydpi="299.95239" sodipodi:nodetypes="ccccc" class="st3" d="
	M117,91.2l-7.3,34.3l-25.8-1L66.8,82.2L117,91.2z"/>
<path id="path4005" inkscape:export-filename="/home/special-k/ubuplane.png" inkscape:export-xdpi="299.95239" inkscape:export-ydpi="299.95239" sodipodi:cx="781.54242" sodipodi:cy="140.08023" sodipodi:rx="4.6088209" sodipodi:ry="4.6088209" sodipodi:type="arc" class="st4" d="
	M97.6,117.2c5.7,0,10.4,4.7,10.4,10.4c0,5.7-4.7,10.4-10.4,10.4s-10.4-4.7-10.4-10.4C87.2,121.9,91.8,117.2,97.6,117.2z"/>
<path id="path4002" inkscape:connector-curvature="0" inkscape:export-filename="/home/special-k/ubuplane.png" inkscape:export-xdpi="299.95239" inkscape:export-ydpi="299.95239" sodipodi:nodetypes="sssss" class="st3" d="
	M79,126.7c-0.1-4.3,7.9-12.5,18.1-12.8c10.2-0.3,18.7,7.6,18.8,11.8c0.1,4.3-8.2,3.3-18.4,3.6C87.3,129.5,79.1,130.9,79,126.7
	L79,126.7z"/>
<path id="path3183" inkscape:connector-curvature="0" inkscape:export-filename="/home/special-k/ubuplane.png" inkscape:export-xdpi="299.95239" inkscape:export-ydpi="299.95239" class="st11" d="
	M79.5,109.5l34-17.3l-44.2-8L79.5,109.5z"/>
<path id="path4009" inkscape:connector-curvature="0" inkscape:export-filename="/home/special-k/ubuplane.png" inkscape:export-xdpi="299.95239" inkscape:export-ydpi="299.95239" sodipodi:nodetypes="sszss" class="st12" d="
	M197.8,93c-3.9-1.9-26.5-4.2-20.7,1.4c2.1,2,16.6,7,18.2,7.2c1.7,0.3,15.5-2.1,10.2-4.7L197.8,93L197.8,93z"/>
<g id="text4080" transform="matrix(5.5747939,-2.0026108,1.1640334,4.6891641,-3234.411,-267.98968)" class="st13">
	<path id="path3168" inkscape:connector-curvature="0" class="st14" d="M547,308.3l-0.2,0.1c0-0.1-0.1-0.1-0.1-0.2
		c0-0.1-0.1-0.1-0.1-0.2c0-0.1-0.1-0.1-0.1-0.2c0-0.1,0-0.1-0.1-0.1l-0.7,1.6l-0.3-0.2l0.9-2l0.2,0.2c0,0.2,0.1,0.3,0.2,0.5
		C546.8,308,546.9,308.1,547,308.3"/>
	<path id="path3170" inkscape:connector-curvature="0" class="st14" d="M545.2,307.8l-0.1,0.2l-0.9-0.8l-0.2,0.5l-0.3-0.2l0.2-0.5
		l-0.2-0.2l0.1-0.2l0.2,0.2l0.6-1.3l0.3,0.2c0,0.2,0.1,0.4,0.1,0.6c0,0.2,0.1,0.4,0.1,0.6c0,0.2,0,0.4,0.1,0.5
		C545.2,307.5,545.2,307.7,545.2,307.8 M544.7,306l-0.4,0.9l0.6,0.6c0-0.1,0-0.2,0-0.4c0-0.1,0-0.3,0-0.4c0-0.1,0-0.3-0.1-0.4
		C544.8,306.2,544.8,306.1,544.7,306"/>
	<path id="path3172" inkscape:connector-curvature="0" class="st14" d="M542.9,306.4c0-0.1,0.1-0.1,0.1-0.1c0.1,0,0.1,0,0.2,0.1
		c0.1,0.1,0.1,0.1,0.1,0.2c0,0.1,0,0.1,0,0.2c0,0.1-0.1,0.1-0.1,0.1s-0.1,0-0.2-0.1c-0.1-0.1-0.1-0.1-0.1-0.2
		C542.9,306.5,542.9,306.5,542.9,306.4"/>
	<path id="path3174" inkscape:connector-curvature="0" class="st14" d="M543,305.3c-0.2,0.3-0.3,0.5-0.5,0.6c-0.2,0.1-0.4,0-0.6-0.2
		c-0.2-0.2-0.3-0.4-0.4-0.7c0-0.3,0-0.6,0.2-0.9s0.3-0.5,0.5-0.6c0.2-0.1,0.4,0,0.6,0.2c0.2,0.2,0.3,0.4,0.4,0.7
		C543.2,304.7,543.1,305,543,305.3 M541.9,304.3c0,0.1-0.1,0.2-0.1,0.3c0,0.1-0.1,0.2-0.1,0.3c0,0.1,0,0.2,0,0.3
		c0,0.1,0.1,0.2,0.2,0.2c0.1,0.1,0.1,0.1,0.2,0.1c0.1,0,0.1,0,0.2-0.1c0.1,0,0.1-0.1,0.2-0.2c0.1-0.1,0.1-0.2,0.2-0.3
		c0-0.1,0.1-0.2,0.1-0.3c0-0.1,0-0.2,0.1-0.3c0-0.1,0-0.2,0-0.3c0-0.1-0.1-0.2-0.2-0.2c-0.1-0.1-0.1-0.1-0.2-0.1
		c-0.1,0-0.1,0-0.2,0.1c-0.1,0-0.1,0.1-0.2,0.2C542,304.1,542,304.2,541.9,304.3"/>
	<path id="path3176" inkscape:connector-curvature="0" class="st14" d="M541.2,304.1l-0.1,0.2l-0.9-0.8l-0.2,0.5l-0.3-0.2l0.2-0.5
		l-0.2-0.2l0.1-0.2l0.2,0.2l0.6-1.3l0.3,0.2c0,0.2,0.1,0.4,0.1,0.6c0,0.2,0.1,0.4,0.1,0.6c0,0.2,0,0.4,0.1,0.5
		C541.2,303.9,541.2,304,541.2,304.1 M540.8,302.3l-0.4,0.9l0.6,0.6c0-0.1,0-0.2,0-0.4c0-0.1,0-0.3,0-0.4c0-0.1,0-0.3-0.1-0.4
		C540.9,302.6,540.8,302.4,540.8,302.3"/>
</g>
<path id="path3195" inkscape:connector-curvature="0" inkscape:export-filename="/home/special-k/ubuplane.png" inkscape:export-xdpi="299.95239" inkscape:export-ydpi="299.95239" class="st15" d="
	M30.3,105.2c4.1,0.7,8.4,1,12.8,1.7c2.2-0.7,4.6-2.7,6.8-5.9c1.6-2.3,2.8-5.7,4.1-8.9L30.3,105.2z"/>
<linearGradient id="path3178_1_" gradientUnits="userSpaceOnUse" x1="-92.8156" y1="534.3237" x2="-83.2982" y2="519.4984" gradientTransform="matrix(-5.3115 -0.5101 0.5101 -5.3115 -617.9684 2776.8633)">
	<stop  offset="0" style="stop-color:#FFFFFF"/>
	<stop  offset="1" style="stop-color:#FFFFFF;stop-opacity:0"/>
</linearGradient>
<path id="path3178" inkscape:connector-curvature="0" sodipodi:nodetypes="sscscs" class="st16" d="M79.4,43.1
	c4.8,4.6,13.9,7,25.3,8.1c6.1,0.6,9.4,1.8,14.3,0.8c-3.4-4.9-8.3-7.6-20.5-9.5c-3.4-0.5-6.9-0.6-10-0.6
	C85.1,42.1,82.6,42.4,79.4,43.1z"/>
<path id="path3987" inkscape:connector-curvature="0" inkscape:export-filename="/home/special-k/ubuplane.png" inkscape:export-xdpi="299.95239" inkscape:export-ydpi="299.95239" sodipodi:nodetypes="ssccs" class="st3" d="
	M131,81.3c-12.2-4.7-73.3-21.2-64.1,0.8l67.3,24.8c8,5.2,68.7,2.3,52.1-4.2L131,81.3L131,81.3z"/>
<linearGradient id="path4283_1_" gradientUnits="userSpaceOnUse" x1="-73.9835" y1="526.8283" x2="-74.758" y2="528.7358" gradientTransform="matrix(-5.3359 0 0 -5.3359 -292.6609 2906.3872)">
	<stop  offset="0" style="stop-color:#D45500"/>
	<stop  offset="1" style="stop-color:#D45500;stop-opacity:0"/>
</linearGradient>
<path id="path4283" inkscape:connector-curvature="0" inkscape:export-filename="/home/special-k/ubuplane.png" inkscape:export-xdpi="299.95239" inkscape:export-ydpi="299.95239" sodipodi:nodetypes="cccccc" class="st17" d="
	M71,73.6c-3,1.7-4.1,2.6-3.2,7.3l66.3,24.5c1,0.6,2.8,1.2,5.1,1.6l0.4-2.4L71,73.6L71,73.6z"/>
<linearGradient id="path4306_1_" gradientUnits="userSpaceOnUse" x1="-19.0181" y1="536.5146" x2="-19.1981" y2="523.9917" gradientTransform="matrix(-5.3359 0 0 -5.3359 27.4956 2897.0493)">
	<stop  offset="0" style="stop-color:#FFFFFF"/>
	<stop  offset="1" style="stop-color:#FFFFFF;stop-opacity:0"/>
</linearGradient>
<path id="path4306" inkscape:connector-curvature="0" inkscape:export-filename="/home/special-k/ubuplane.png" inkscape:export-xdpi="299.95239" inkscape:export-ydpi="299.95239" sodipodi:nodetypes="sccccs" class="st18" d="
	M72.2,73.3l111.5,33c2.8-0.6,5.6-0.9,1.7-2.6l-54.8-21.1c-7.5-3.3-33.3-10.6-50.1-10.3C77.3,72.3,74.5,72.6,72.2,73.3z"/>
<g id="santaHead">
	<path class="st14" d="M108,48.2c0,8.8-7.1,15.9-15.8,15.9S76.4,57,76.4,48.2v-28H108V48.2z"/>
	<path class="st19" d="M108,21.3c0,8.8-7.1,15.9-15.8,15.9s-15.8-7.1-15.8-15.9v-6.1H108V21.3z"/>
	<path class="st0" d="M73.6,21.2c0-10.3,8.3-18.7,18.6-18.7s18.6,8.4,18.6,18.7"/>
	<ellipse class="st20" cx="86.1" cy="27.1" rx="2" ry="2"/>
	<ellipse class="st20" cx="96.7" cy="27.1" rx="2" ry="2"/>
	<ellipse class="st14" cx="116.9" cy="28.1" rx="6.5" ry="6.5"/>
</g>
</svg>
