<?xml version="1.0" encoding="utf-8"?>
<!-- Generator: Adobe Illustrator 21.0.0, SVG Export Plug-In . SVG Version: 6.00 Build 0)  -->
<svg version="1.1" id="Vrstva_1" xmlns="http://www.w3.org/2000/svg" xmlns:xlink="http://www.w3.org/1999/xlink" x="0px" y="0px"
	 viewBox="0 0 440 90" style="enable-background:new 0 0 440 90;" xml:space="preserve">
<style type="text/css">
	.st0{fill:#EE3124;}
</style>
<path class="st0" d="M39.1,4h19.2v62.5H39.1V38H24v28.5H4.6V4H24v26h15.1V4z M112.5,31.2c3.5,6,3.9,14.7,1.4,21.8
	c-2.5,7.1-7.5,10.6-10.8,12.4c-3.3,1.8-8.5,2.7-13.6,2.7c-5.1,0-11.7-1.1-16.1-4.6c-4.4-3.5-7.4-7.3-8.7-12.6
	c-1.3-5.2-2.2-14.5,3.4-21.9c5.5-7.4,12.5-8.7,15.8-9.3c2.9-0.5,4.8-0.4,5-0.4c0,0,6.2-0.4,11.3,1.6C105.2,23,109,25.2,112.5,31.2z
	 M96.1,37.5c0-3.5-0.6-6.2-1.1-7.5c-0.9-2.3-2.6-5-5.4-5c-0.3,0-0.6,0-1,0.1c-1.5,0.3-2.9,1.9-4.2,4.7c-1.1,2.5-1.1,6.4-1.2,11.7
	c0,1.5,0,3.2,0,5c-0.1,8.2,0.6,10.7,2.3,13.3c1,1.5,2.2,2.4,3.6,2.6c1.1,0.2,2.2-0.2,3.2-1c2.8-2.4,3.5-7.5,3.6-9
	C96.2,51,96.2,43.7,96.1,37.5z M161.3,21.1c-6.4-2.7-12.8-1.1-16.4,0.6c-3.7,1.7-6,5.4-6.1,5.3v-6.1h-18v45.6l18,0V33.7
	c0-0.7,2.2-3.1,4.6-4.4c2.5-1.3,5.4-0.6,6.4,0.6c1.4,1.7,1.4,3.7,1.4,4.8v31.7H169l0-34.7C168.8,29.6,167.7,23.8,161.3,21.1z
	 M222.8,31.6c3.4,6.5,2.9,14.9,2.9,14.9h-32.1v9.3c0,0,0.3,1.9,1.1,2.9c0.7,1,3.3,4.8,12.1,3.4c9.8-1.5,9.5-8.5,9.7-8.5l7.7,0
	c0,0-0.1,4.6-3.3,7.7c-3.2,3.1-8.9,6.2-15.2,6.8c-6.4,0.7-15.3,0.8-22.6-5.2c-4.2-3.5-6.2-7.4-7.4-10.9c-1.5-4.4-2-12.9,1.6-20.1
	c3.6-7.2,12.7-13,24-12.4C212.4,19.9,218.9,24,222.8,31.6z M207,36.3c0-2.4-0.4-5.1-0.7-5.9l0-0.1c-0.3-0.9-0.7-2.3-2.4-4
	c-1.7-1.7-4.9-1.6-6.5-0.5c-1.3,0.9-2.8,3.2-3.3,6c-0.4,2.4-0.4,7-0.4,8.4H207C207,39.5,207,38.5,207,36.3z M386.5,31.6
	c3.4,6.5,2.9,14.9,2.8,14.9h-32.1v9.3c0,0,0.3,1.9,1.1,2.9c0.7,1,3.3,4.8,12.1,3.4c9.8-1.5,9.5-8.5,9.7-8.5l7.7,0
	c0,0-0.1,4.6-3.3,7.7c-3.2,3.1-8.9,6.2-15.2,6.8c-6.4,0.7-15.3,0.8-22.6-5.2c-4.2-3.5-6.2-7.4-7.4-10.9c-1.5-4.4-2-12.9,1.6-20.1
	c3.6-7.2,12.7-13,24-12.4C376.1,19.9,382.6,24,386.5,31.6z M370.7,36.3c0-2.5-0.4-5.1-0.7-5.9l0-0.1c-0.3-0.9-0.7-2.3-2.4-4
	c-1.7-1.7-4.9-1.6-6.5-0.5c-1.3,0.9-2.8,3.2-3.3,6c-0.4,2.4-0.4,7-0.4,8.4h13.4C370.7,39.5,370.7,38.5,370.7,36.3z M331,20.9
	l-6.9,25.6l-7.7-25.6h-15.7l-7,25.6l-8-25.6h-24.6l-9,21.7l-8.4-21.7h-19.6l18.2,46.7c0,0,0,0.4-0.4,1.8c-0.4,1.3-1.6,4.6-3.9,7
	c-2.2,2.3-4.6,1.7-4.6,1.7s1-0.8,1.5-2.2c0.6-1.3,0.4-3.7-0.6-5.8c-1-2.1-3.8-3.7-8.1-2.9c-4.3,0.8-6.2,4.8-5.8,8.5
	c0.4,3.7,2.9,6.9,8.9,8c6.1,1.1,9.8-1.1,13.1-4.1c3.4-3,6.1-10.6,6.1-10.6l19-46.5l13.5,44h15.2l7.3-26.4l8.2,26.4h14.8l12.5-45.6
	H331z M394.7,66.5H412V4h-17.3V66.5z M417.4,4v62.5h17.3V4H417.4z"/>
</svg>
