<?xml version="1.0" encoding="utf-8"?>
<!-- Generator: Adobe Illustrator 21.0.0, SVG Export Plug-In . SVG Version: 6.00 Build 0)  -->
<svg version="1.1" id="Vrstva_1" xmlns="http://www.w3.org/2000/svg" xmlns:xlink="http://www.w3.org/1999/xlink" x="0px" y="0px"
	 viewBox="0 0 270 55" style="enable-background:new 0 0 270 55;" xml:space="preserve">
<style type="text/css">
	.st0{fill:#FFFFFF;}
</style>
<path class="st0" d="M22.2,2.4h12v39.1h-12V23.6h-9.4v17.8H0.6V2.4h12.1v16.3h9.4V2.4z M68.1,19.4c2.2,3.8,2.4,9.2,0.9,13.7
	c-1.5,4.4-4.7,6.6-6.7,7.7c-2.1,1.1-5.3,1.7-8.5,1.7c-3.2,0-7.3-0.7-10-2.9c-2.7-2.2-4.6-4.6-5.4-7.8c-0.8-3.3-1.4-9.1,2.1-13.7
	c3.5-4.6,7.8-5.4,9.9-5.8c1.8-0.3,3-0.3,3.2-0.3c0,0,3.9-0.2,7,1C63.5,14.2,65.9,15.6,68.1,19.4z M57.8,23.3c0-2.2-0.4-3.9-0.7-4.7
	c-0.6-1.5-1.6-3.1-3.4-3.1c-0.2,0-0.4,0-0.6,0.1c-0.9,0.2-1.8,1.2-2.6,2.9c-0.7,1.5-0.7,4-0.7,7.3c0,1,0,2,0,3.1
	c-0.1,5.1,0.4,6.7,1.5,8.3c0.6,0.9,1.4,1.5,2.2,1.6c0.7,0.1,1.4-0.1,2-0.6c1.8-1.5,2.2-4.7,2.3-5.6C57.9,31.7,57.9,27.2,57.8,23.3z
	 M98.6,13.1c-4-1.7-8-0.7-10.3,0.4c-2.3,1.1-3.8,3.3-3.8,3.3v-3.8H73.2v28.5l11.2,0V21c0-0.4,1.4-1.9,2.9-2.7c1.5-0.8,3.4-0.4,4,0.4
	c0.9,1.1,0.9,2.3,0.9,3v19.8h11.1l0-21.7C103.3,18.4,102.6,14.8,98.6,13.1z M137,19.6c2.1,4,1.8,9.3,1.8,9.3h-20.1v5.8
	c0,0,0.2,1.2,0.7,1.8c0.5,0.6,2.1,3,7.6,2.1c6.1-1,5.9-5.3,6.1-5.3l4.8,0c0,0-0.1,2.9-2.1,4.8c-2,1.9-5.6,3.9-9.5,4.3
	c-4,0.4-9.6,0.5-14.1-3.3c-2.7-2.2-3.8-4.6-4.6-6.8c-1-2.7-1.3-8,1-12.6c2.2-4.5,7.9-8.1,15-7.7C130.5,12.3,134.6,14.9,137,19.6z
	 M127.1,22.6c0-1.5-0.3-3.2-0.4-3.7l0-0.1c-0.2-0.5-0.4-1.4-1.5-2.5c-1-1.1-3-1-4.1-0.3c-0.8,0.6-1.8,2-2.1,3.7
	c-0.3,1.5-0.3,4.4-0.2,5.2h8.4C127.1,24.6,127.1,24,127.1,22.6z M239.4,19.6c2.1,4,1.8,9.3,1.8,9.3h-20v5.8c0,0,0.2,1.2,0.7,1.8
	c0.5,0.6,2.1,3,7.6,2.1c6.1-1,5.9-5.3,6.1-5.3l4.8,0c0,0-0.1,2.9-2.1,4.8c-2,1.9-5.6,3.9-9.5,4.3c-4,0.4-9.6,0.5-14.1-3.3
	c-2.7-2.2-3.8-4.6-4.6-6.8c-1-2.7-1.3-8,1-12.6c2.2-4.5,7.9-8.1,15-7.7C232.8,12.3,236.9,14.9,239.4,19.6z M229.4,22.6
	c0-1.5-0.3-3.2-0.4-3.7l0-0.1c-0.2-0.5-0.4-1.4-1.5-2.5c-1-1.1-3-1-4.1-0.3c-0.8,0.6-1.8,2-2.1,3.7c-0.3,1.5-0.3,4.4-0.2,5.2h8.4
	C229.4,24.6,229.4,24,229.4,22.6z M204.7,12.9l-4.3,16l-4.8-16h-9.8l-4.4,16l-5-16h-15.4l-5.6,13.6l-5.2-13.6h-12.3l11.4,29.2
	c0,0,0,0.3-0.2,1.1c-0.2,0.8-1,2.9-2.4,4.4c-1.4,1.5-2.9,1.1-2.9,1.1s0.6-0.5,1-1.3c0.4-0.8,0.2-2.3-0.4-3.6
	c-0.6-1.3-2.4-2.3-5.1-1.8c-2.7,0.5-3.9,3-3.6,5.3c0.3,2.3,1.8,4.3,5.6,5c3.8,0.7,6.1-0.7,8.2-2.6c2.1-1.9,3.8-6.6,3.8-6.6L165,13.9
	l8.4,27.5h9.5l4.5-16.5l5.1,16.5h9.3l7.8-28.5H204.7z M244.5,41.4h10.8V2.4h-10.8V41.4z M258.6,2.4v39.1h10.8V2.4H258.6z"/>
</svg>
