<?xml version="1.0" encoding="utf-8"?>
<!-- Generator: Adobe Illustrator 21.0.0, SVG Export Plug-In . SVG Version: 6.00 Build 0)  -->
<svg version="1.1" id="Vrstva_1" xmlns="http://www.w3.org/2000/svg" xmlns:xlink="http://www.w3.org/1999/xlink" x="0px" y="0px"
	 viewBox="0 0 175 105" style="enable-background:new 0 0 175 105;" xml:space="preserve">
<style type="text/css">
	.st0{fill:#BAE7F7;}
	.st1{fill:#AADCF0;}
</style>
<g>
	<path class="st0" d="M134.6,27.6c-1.6,0-3.1,0.1-4.6,0.3C125,12.9,110.8,2.1,94,2.1c-18.1,0-33.2,12.5-37,29.2
		c-5-2.4-10.6-3.8-16.6-3.8c-20.9,0-37.9,16.7-37.9,37.3s17,37.3,37.9,37.3h94.2c20.9,0,37.9-16.7,37.9-37.3S155.5,27.6,134.6,27.6z
		"/>
	<path class="st1" d="M8.3,84.6c6.7,10.5,18.6,17.5,32.1,17.5h94.2c13.5,0,25.4-7,32.1-17.5H8.3z"/>
</g>
</svg>
