<?xml version="1.0" encoding="utf-8"?>
<!-- Generator: Adobe Illustrator 21.0.0, SVG Export Plug-In . SVG Version: 6.00 Build 0)  -->
<svg version="1.1" id="Vrstva_1" xmlns="http://www.w3.org/2000/svg" xmlns:xlink="http://www.w3.org/1999/xlink" x="0px" y="0px"
	 viewBox="0 0 305 85" style="enable-background:new 0 0 305 85;" xml:space="preserve">
<style type="text/css">
	.st0{fill:#DC1E24;}
	.st1{fill:#EE3124;}
	.st2{fill:#FFFFFF;}
</style>
<g>
	<path class="st0" d="M293.5,83.3H8.5C4.4,83.3,1,80,1,75.8v-60c0-4.1,3.4-7.5,7.5-7.5h285c4.1,0,7.5,3.4,7.5,7.5v60
		C301,80,297.6,83.3,293.5,83.3z"/>
	<path class="st1" d="M293.5,77.3H8.5C4.4,77.3,1,74,1,69.8v-60c0-4.1,3.4-7.5,7.5-7.5h285c4.1,0,7.5,3.4,7.5,7.5v60
		C301,74,297.6,77.3,293.5,77.3z"/>
	<g>
		<path class="st2" d="M23.9,26.6h13.3c6.2,0,9.3,4,9.3,9.8c0,6.2-4.1,9.5-10.2,9.5h-4.8v7h-7.6V26.6z M31.5,32.9v6.9h4.3
			c2.1,0,3.3-1.3,3.3-3.6c0-1.7-0.9-3.3-3.3-3.3H31.5z"/>
		<path class="st2" d="M49,47V26.6h7.3v19.7c0,1.1,0.4,1.5,1.2,1.5h1.2v5.1h-3.7C50.8,52.8,49,50.9,49,47z"/>
		<path class="st2" d="M60.1,47.9c0-4.4,3.6-6.5,8.5-6.5h3.2c-0.1-2.1-1.6-2.6-3.5-2.6c-2.4,0-4.2,0.7-5.4,2l-2.5-4
			c2-2.2,5.1-3.3,9.1-3.3c5.3,0,9.4,2,9.4,8.2v11.1h-6.1l-0.5-2.5c-1.2,1.9-3.2,3-6,3C62.6,53.4,60.1,51.4,60.1,47.9z M71.9,45.6
			v-0.5h-2.4c-2,0-3,0.7-3,2.1c0,1.1,0.8,1.8,2.2,1.8C70.7,49,71.9,47.8,71.9,45.6z"/>
		<path class="st2" d="M87,52.8L79.7,34h7.5l3.6,11l3.4-11h7.5L93,56.3c-1.5,3.7-4.4,4.9-8.3,4.9c-1.9,0-3.2-0.3-4.5-0.8l0.6-5
			c1.1,0.5,2,0.7,2.9,0.7c1.4,0,2.4-0.6,2.9-2.1L87,52.8z"/>
		<path class="st2" d="M113.1,34v-5.3h7.1V34h4.8v5.3h-4.8v6.5c0,1.7,0.8,2.5,2.4,2.5c0.8,0,1.6-0.1,2.3-0.5l0.9,4.3
			c-1.5,0.9-3.3,1.4-5.4,1.4c-4,0-7.4-1.6-7.4-6.9v-7.2h-2.7V34H113.1z"/>
		<path class="st2" d="M135.2,37.3c1.3-2.5,3.6-3.9,6.4-3.9c4.7,0,6.8,3.2,6.8,7.5v11.9H141v-9.3c0-2.9-0.9-3.8-2.7-3.8
			s-3.1,1.2-3.2,3.9v9.2h-7.3V26.6h7.3V37.3z"/>
		<path class="st2" d="M150.8,43.6c0-6.3,3.7-10.1,9.9-10.1c6.6,0,9.3,4.4,9.3,9.7c0,0.7,0,1.4-0.1,2.2h-12.2c0.3,2.3,1.8,3.2,4,3.2
			c1.8,0,3-0.6,3.8-2l4.2,2.7c-1.6,2.7-4.6,4.1-8.6,4.1C154.9,53.4,150.8,50.2,150.8,43.6z M157.6,41.5h5.9c-0.1-2-1.1-3.1-2.8-3.1
			C159,38.4,157.8,39.5,157.6,41.5z"/>
		<path class="st2" d="M201.2,51.8c0,6.4-4.7,9.4-11.1,9.4c-3.7,0-7.4-1.1-8.9-3.9l3.8-3.5c1.1,1.7,2.8,2.4,4.7,2.4
			c2.7,0,4.2-1.4,4.2-4.2v-2.3c-1.1,1.9-2.9,2.9-5.6,2.9c-4.6,0-7.8-3.1-7.8-9.4c0-6.5,3.4-9.6,8.3-9.6c2.7,0,4.8,1.1,6,3.1l0.5-2.6
			h5.9V51.8z M190.7,38.8c-2,0-3.2,1.4-3.2,4.2c0,3,1.1,4.4,3.2,4.4c2.1,0,3.3-1.5,3.3-4.4C194,40.2,192.7,38.8,190.7,38.8z"/>
		<path class="st2" d="M203.8,47.9c0-4.4,3.6-6.5,8.5-6.5h3.2c-0.2-2.1-1.6-2.6-3.5-2.6c-2.4,0-4.2,0.7-5.4,2l-2.5-4
			c1.9-2.2,5.1-3.3,9.1-3.3c5.3,0,9.4,2,9.4,8.2v11.1h-6.1l-0.5-2.5c-1.2,1.9-3.2,3-6,3C206.3,53.4,203.8,51.4,203.8,47.9z
			 M215.6,45.6v-0.5h-2.4c-2,0-3,0.7-3,2.1c0,1.1,0.8,1.8,2.3,1.8C214.4,49,215.6,47.8,215.6,45.6z"/>
		<path class="st2" d="M226.2,34h5.9l0.6,3.2c1.4-2.4,3.8-3.7,6.5-3.7c3.3,0,5.1,1.8,5.8,4.2c1.2-2.7,3.6-4.2,6.7-4.2
			c4.7,0,6.6,3.2,6.6,7.4v11.9h-7.3v-9.6c0-2.4-0.6-3.4-2.2-3.4c-1.6,0-2.9,1.1-2.9,3.6v9.4h-7.3v-9.5c0-2.4-0.7-3.5-2.3-3.5
			c-1.6,0-2.7,1.1-2.8,3.6v9.4h-7.3V34z"/>
		<path class="st2" d="M260.7,43.6c0-6.3,3.7-10.1,9.9-10.1c6.6,0,9.3,4.4,9.3,9.7c0,0.7,0,1.4-0.2,2.2h-12.2c0.3,2.3,1.8,3.2,4,3.2
			c1.8,0,3-0.6,3.8-2l4.2,2.7c-1.6,2.7-4.6,4.1-8.6,4.1C264.8,53.4,260.7,50.2,260.7,43.6z M267.5,41.5h5.9c-0.1-2-1-3.1-2.8-3.1
			C268.9,38.4,267.8,39.5,267.5,41.5z"/>
	</g>
</g>
</svg>
