<?xml version="1.0" encoding="utf-8"?>
<!-- Generator: Adobe Illustrator 21.0.0, SVG Export Plug-In . SVG Version: 6.00 Build 0)  -->
<svg version="1.1" id="Vrstva_2" xmlns="http://www.w3.org/2000/svg" xmlns:xlink="http://www.w3.org/1999/xlink" x="0px" y="0px"
	 viewBox="0 0 385 85" style="enable-background:new 0 0 385 85;" xml:space="preserve">
<style type="text/css">
	.st0{fill:#DC1E24;}
	.st1{fill:#EE3124;}
	.st2{fill:#FFFFFF;}
</style>
<g>
	<path class="st0" d="M374.4,82.9H9.4c-4.1,0-7.5-3.4-7.5-7.5v-60c0-4.1,3.4-7.5,7.5-7.5h365c4.1,0,7.5,3.4,7.5,7.5v60
		C381.9,79.5,378.5,82.9,374.4,82.9z"/>
	<path class="st1" d="M374.4,76.9H9.4c-4.1,0-7.5-3.4-7.5-7.5v-60c0-4.1,3.4-7.5,7.5-7.5h365c4.1,0,7.5,3.4,7.5,7.5v60
		C381.9,73.5,378.5,76.9,374.4,76.9z"/>
	<g>
		<path class="st2" d="M98.3,31.1h13.8V35h-8.9v2.8h7.6v3.9h-7.6v3h9.1v3.9H98.3V31.1z"/>
		<path class="st2" d="M118.6,36.1l0.4,2.2c0.9-1.6,2.6-2.6,4.6-2.6c3.3,0,4.7,2.1,4.7,5v7.9h-4.8v-6.2c0-1.9-0.6-2.5-1.8-2.5
			s-2.1,0.8-2.1,2.6v6.1h-4.8V36.1H118.6z"/>
		<path class="st2" d="M131.3,36.1v-3.5h4.7v3.5h3.2v3.5H136v4.3c0,1.1,0.5,1.7,1.6,1.7c0.5,0,1.1-0.1,1.5-0.4l0.6,2.9
			c-1,0.6-2.2,0.9-3.6,0.9c-2.7,0-4.9-1-4.9-4.6v-4.8h-1.8v-3.5H131.3z"/>
		<path class="st2" d="M140.4,42.5c0-4.2,2.4-6.7,6.6-6.7c4.4,0,6.2,2.9,6.2,6.5c0,0.5,0,0.9-0.1,1.4H145c0.2,1.5,1.2,2.1,2.7,2.1
			c1.2,0,2-0.4,2.5-1.3l2.8,1.8c-1,1.8-3.1,2.7-5.7,2.7C143.1,49,140.4,46.9,140.4,42.5z M145,41.1h3.9c-0.1-1.3-0.7-2-1.8-2
			C145.9,39,145.1,39.7,145,41.1z"/>
		<path class="st2" d="M155.1,36.1h4l0.4,2.4c0.9-1.8,2.4-2.8,4.3-2.8l0.1,4.6c-2.7-0.2-3.9,1.4-3.9,3.9v4.5h-4.8V36.1z"/>
		<path class="st2" d="M171.9,36.1v-3.5h4.7v3.5h3.2v3.5h-3.2v4.3c0,1.1,0.5,1.7,1.6,1.7c0.6,0,1.1-0.1,1.5-0.4l0.6,2.9
			c-1,0.6-2.2,0.9-3.6,0.9c-2.7,0-4.9-1-4.9-4.6v-4.8h-1.8v-3.5H171.9z"/>
		<path class="st2" d="M186.7,38.3c0.9-1.6,2.4-2.6,4.2-2.6c3.1,0,4.5,2.1,4.5,5v7.9h-4.8v-6.2c0-1.9-0.6-2.5-1.8-2.5
			s-2.1,0.8-2.1,2.6v6.1h-4.8V31.1h4.8V38.3z"/>
		<path class="st2" d="M197.2,42.5c0-4.2,2.4-6.7,6.6-6.7c4.4,0,6.2,2.9,6.2,6.5c0,0.5,0,0.9-0.1,1.4h-8.1c0.2,1.5,1.2,2.1,2.7,2.1
			c1.2,0,2-0.4,2.5-1.3l2.8,1.8c-1,1.8-3.1,2.7-5.7,2.7C199.9,49,197.2,46.9,197.2,42.5z M201.7,41.1h3.9c-0.1-1.3-0.7-2-1.8-2
			C202.7,39,201.9,39.7,201.7,41.1z"/>
		<path class="st2" d="M217.4,39.8c0-6.2,2.9-9.1,8.9-9.1c3.6,0,5.9,1.2,7,4l-4,2c-0.7-1.4-1.5-1.9-3-1.9c-2.4,0-3.7,1.2-3.7,5
			c0,3.9,1.4,5.1,3.8,5.1c1.5,0,2.8-0.7,3-2.4h-3v-3.7h7.6v9.8h-3.4l-0.3-2c-0.9,1.5-2.5,2.3-4.8,2.3C220.5,49,217.4,46,217.4,39.8z
			"/>
		<path class="st2" d="M235.8,45.3c0-2.9,2.4-4.3,5.7-4.3h2.1c-0.1-1.4-1-1.8-2.3-1.8c-1.6,0-2.8,0.5-3.6,1.3l-1.6-2.7
			c1.3-1.5,3.4-2.2,6-2.2c3.5,0,6.3,1.3,6.3,5.5v7.4h-4.1l-0.3-1.7c-0.8,1.3-2.1,2-4,2C237.5,49,235.8,47.7,235.8,45.3z M243.7,43.8
			v-0.3h-1.6c-1.3,0-2,0.5-2,1.4c0,0.7,0.5,1.2,1.5,1.2C242.9,46.1,243.7,45.3,243.7,43.8z"/>
		<path class="st2" d="M250.8,36.1h3.9l0.4,2.1c0.9-1.6,2.5-2.5,4.3-2.5c2.2,0,3.4,1.2,3.8,2.8c0.8-1.8,2.4-2.8,4.4-2.8
			c3.1,0,4.4,2.1,4.4,4.9v7.9h-4.8v-6.4c0-1.6-0.4-2.3-1.5-2.3c-1.1,0-1.9,0.7-1.9,2.4v6.2H259v-6.3c0-1.6-0.5-2.3-1.5-2.3
			c-1,0-1.8,0.7-1.8,2.4v6.2h-4.8V36.1z"/>
		<path class="st2" d="M273.9,42.5c0-4.2,2.4-6.7,6.6-6.7c4.4,0,6.2,2.9,6.2,6.5c0,0.5,0,0.9-0.1,1.4h-8.1c0.2,1.5,1.2,2.1,2.7,2.1
			c1.2,0,2-0.4,2.5-1.3l2.8,1.8c-1,1.8-3.1,2.7-5.7,2.7C276.6,49,273.9,46.9,273.9,42.5z M278.5,41.1h3.9c-0.1-1.3-0.7-2-1.8-2
			C279.4,39,278.6,39.7,278.5,41.1z"/>
	</g>
</g>
</svg>
