<?xml version="1.0" encoding="utf-8"?>
<!-- Generator: Adobe Illustrator 21.0.0, SVG Export Plug-In . SVG Version: 6.00 Build 0)  -->
<svg version="1.1" id="Vrstva_1" xmlns="http://www.w3.org/2000/svg" xmlns:xlink="http://www.w3.org/1999/xlink" x="0px" y="0px"
	 viewBox="0 0 385 85" style="enable-background:new 0 0 385 85;" xml:space="preserve">
<style type="text/css">
	.st0{fill:#DC1E24;}
	.st1{fill:#EE3124;}
	.st2{fill:#FFFFFF;}
</style>
<g>
	<path class="st0" d="M374.4,83.3H9.4c-4.1,0-7.5-3.4-7.5-7.5v-60c0-4.1,3.4-7.5,7.5-7.5h365c4.1,0,7.5,3.4,7.5,7.5v60
		C381.9,79.9,378.5,83.3,374.4,83.3z"/>
	<path class="st1" d="M374.4,77.3H9.4c-4.1,0-7.5-3.4-7.5-7.5v-60c0-4.1,3.4-7.5,7.5-7.5h365c4.1,0,7.5,3.4,7.5,7.5v60
		C381.9,73.9,378.5,77.3,374.4,77.3z"/>
	<g>
		<path class="st2" d="M32.9,30.5h13.8v3.9h-8.9v2.8h7.6v3.9h-7.6v3H47V48H32.9V30.5z"/>
		<path class="st2" d="M53.2,35.5l0.4,2.2c0.9-1.6,2.6-2.6,4.6-2.6c3.3,0,4.7,2.1,4.7,5V48H58v-6.2c0-1.9-0.6-2.5-1.8-2.5
			s-2.1,0.8-2.1,2.6V48h-4.8V35.5H53.2z"/>
		<path class="st2" d="M65.9,35.5V32h4.7v3.5h3.2V39h-3.2v4.3c0,1.1,0.5,1.7,1.6,1.7c0.5,0,1.1-0.1,1.5-0.4l0.6,2.9
			c-1,0.6-2.2,0.9-3.6,0.9c-2.7,0-4.9-1-4.9-4.6V39h-1.8v-3.5H65.9z"/>
		<path class="st2" d="M75.1,41.9c0-4.2,2.4-6.7,6.6-6.7c4.4,0,6.2,2.9,6.2,6.5c0,0.5,0,0.9-0.1,1.5h-8.1c0.2,1.5,1.2,2.1,2.7,2.1
			c1.2,0,2-0.4,2.5-1.3l2.8,1.8c-1,1.8-3.1,2.7-5.7,2.7C77.7,48.4,75.1,46.3,75.1,41.9z M79.6,40.5h3.9c-0.1-1.3-0.7-2-1.8-2
			C80.5,38.4,79.7,39.1,79.6,40.5z"/>
		<path class="st2" d="M89.8,35.5h4l0.4,2.4c0.9-1.8,2.4-2.8,4.3-2.8l0.1,4.6c-2.7-0.2-3.9,1.4-3.9,3.9V48h-4.8V35.5z"/>
		<path class="st2" d="M106.5,35.5V32h4.7v3.5h3.2V39h-3.2v4.3c0,1.1,0.5,1.7,1.6,1.7c0.6,0,1.1-0.1,1.5-0.4l0.6,2.9
			c-1,0.6-2.2,0.9-3.6,0.9c-2.7,0-4.9-1-4.9-4.6V39h-1.8v-3.5H106.5z"/>
		<path class="st2" d="M121.3,37.7c0.9-1.6,2.4-2.6,4.2-2.6c3.1,0,4.5,2.1,4.5,5V48h-4.8v-6.2c0-1.9-0.6-2.5-1.8-2.5
			s-2.1,0.8-2.1,2.6V48h-4.8V30.5h4.8V37.7z"/>
		<path class="st2" d="M131.8,41.9c0-4.2,2.4-6.7,6.6-6.7c4.4,0,6.2,2.9,6.2,6.5c0,0.5,0,0.9-0.1,1.5h-8.1c0.2,1.5,1.2,2.1,2.7,2.1
			c1.2,0,2-0.4,2.5-1.3l2.8,1.8c-1,1.8-3.1,2.7-5.7,2.7C134.5,48.4,131.8,46.3,131.8,41.9z M136.3,40.5h3.9c-0.1-1.3-0.7-2-1.8-2
			C137.3,38.4,136.5,39.1,136.3,40.5z"/>
		<path class="st2" d="M152,39.3c0-6.3,2.9-9.1,8.9-9.1c3.6,0,6.1,1.3,7.2,4.3l-4,1.9c-0.7-1.6-1.5-2.1-3.2-2.1
			c-2.3,0-3.7,1.1-3.7,5c0,3.8,1.4,5,3.8,5c1.6,0,2.7-0.7,3.3-2.2l4.1,1.9c-1.2,2.8-3.6,4.4-7.6,4.4C154.8,48.4,152,45.4,152,39.3z"
			/>
		<path class="st2" d="M174.7,37.7c0.9-1.6,2.4-2.6,4.2-2.6c3.1,0,4.5,2.1,4.5,5V48h-4.8v-6.2c0-1.9-0.6-2.5-1.8-2.5
			s-2.1,0.8-2.1,2.6V48h-4.8V30.5h4.8V37.7z"/>
		<path class="st2" d="M185.9,35.5h4l0.4,2.4c0.8-1.8,2.4-2.8,4.3-2.8l0,4.6c-2.7-0.2-3.9,1.4-3.9,3.9V48h-4.8V35.5z"/>
		<path class="st2" d="M198.5,29.5c1.7,0,2.6,0.7,2.6,2.4c0,1.6-0.9,2.3-2.6,2.3c-1.7,0-2.7-0.7-2.7-2.3
			C195.8,30.2,196.8,29.5,198.5,29.5z M201,35.5V48h-4.8V35.5H201z"/>
		<path class="st2" d="M209.8,44.8c0-0.5-0.6-0.7-1.7-0.9l-1.1-0.2c-2.3-0.4-4-1.7-4-4c0-2.5,1.7-4.5,5.5-4.5c2.4,0,4.2,0.6,5.5,2.2
			l-2.3,2.3c-0.7-0.8-1.6-1.4-3.1-1.4c-0.9,0-1.6,0.2-1.6,0.8c0,0.4,0.4,0.8,1.4,0.9l1.6,0.3c2.8,0.5,4,2,4,3.8
			c0,2.2-1.5,4.3-5.9,4.3c-2.7,0-4.8-0.8-5.8-2.3l2.1-2.3c0.8,1,2.2,1.7,3.7,1.7C209.2,45.5,209.8,45.3,209.8,44.8z"/>
		<path class="st2" d="M216.8,35.5V32h4.7v3.5h3.2V39h-3.2v4.3c0,1.1,0.5,1.7,1.6,1.7c0.5,0,1.1-0.1,1.5-0.4l0.6,2.9
			c-1,0.6-2.2,0.9-3.6,0.9c-2.7,0-4.9-1-4.9-4.6V39H215v-3.5H216.8z"/>
		<path class="st2" d="M226.8,35.5h3.9l0.4,2.1c0.9-1.6,2.5-2.5,4.3-2.5c2.2,0,3.4,1.2,3.8,2.8c0.8-1.8,2.4-2.8,4.4-2.8
			c3.1,0,4.4,2.1,4.4,4.9V48h-4.8v-6.4c0-1.6-0.4-2.3-1.5-2.3c-1.1,0-1.9,0.7-1.9,2.4V48H235v-6.3c0-1.6-0.5-2.3-1.5-2.3
			c-1,0-1.8,0.7-1.8,2.4V48h-4.8V35.5z"/>
		<path class="st2" d="M249.9,44.7c0-2.9,2.4-4.3,5.7-4.3h2.2c-0.1-1.4-1.1-1.8-2.3-1.8c-1.6,0-2.8,0.5-3.6,1.3l-1.6-2.7
			c1.3-1.5,3.4-2.2,6-2.2c3.5,0,6.3,1.3,6.3,5.5V48h-4.1l-0.3-1.7c-0.8,1.3-2.1,2-4,2C251.5,48.4,249.9,47.1,249.9,44.7z
			 M257.7,43.2v-0.3h-1.6c-1.3,0-2,0.5-2,1.4c0,0.7,0.5,1.2,1.5,1.2C256.9,45.5,257.7,44.7,257.7,43.2z"/>
		<path class="st2" d="M271.3,44.8c0-0.5-0.6-0.7-1.7-0.9l-1.2-0.2c-2.3-0.4-4-1.7-4-4c0-2.5,1.7-4.5,5.5-4.5c2.4,0,4.2,0.6,5.5,2.2
			l-2.3,2.3c-0.7-0.8-1.6-1.4-3.1-1.4c-0.9,0-1.6,0.2-1.6,0.8c0,0.4,0.4,0.8,1.4,0.9l1.6,0.3c2.8,0.5,4,2,4,3.8
			c0,2.2-1.5,4.3-5.9,4.3c-2.7,0-4.8-0.8-5.8-2.3l2.1-2.3c0.8,1,2.1,1.7,3.7,1.7C270.7,45.5,271.3,45.3,271.3,44.8z"/>
		<path class="st2" d="M282.8,39.3c0-6.2,2.9-9.1,8.9-9.1c3.6,0,5.9,1.2,7,4l-4,2c-0.7-1.4-1.5-1.9-3-1.9c-2.4,0-3.7,1.2-3.7,5
			c0,3.9,1.4,5.1,3.8,5.1c1.5,0,2.8-0.7,3-2.4h-3v-3.7h7.6V48h-3.4l-0.3-2c-0.9,1.5-2.5,2.3-4.8,2.3
			C285.9,48.4,282.8,45.4,282.8,39.3z"/>
		<path class="st2" d="M301.2,44.7c0-2.9,2.4-4.3,5.7-4.3h2.1c-0.1-1.4-1-1.8-2.3-1.8c-1.6,0-2.8,0.5-3.6,1.3l-1.6-2.7
			c1.3-1.5,3.4-2.2,6-2.2c3.5,0,6.3,1.3,6.3,5.5V48h-4.1l-0.3-1.7c-0.8,1.3-2.1,2-4,2C302.9,48.4,301.2,47.1,301.2,44.7z M309,43.2
			v-0.3h-1.6c-1.3,0-2,0.5-2,1.4c0,0.7,0.5,1.2,1.5,1.2C308.3,45.5,309,44.7,309,43.2z"/>
		<path class="st2" d="M316.2,35.5h3.9l0.4,2.1c0.9-1.6,2.5-2.5,4.3-2.5c2.2,0,3.4,1.2,3.8,2.8c0.8-1.8,2.4-2.8,4.4-2.8
			c3.1,0,4.4,2.1,4.4,4.9V48h-4.8v-6.4c0-1.6-0.4-2.3-1.5-2.3c-1.1,0-1.9,0.7-1.9,2.4V48h-4.8v-6.3c0-1.6-0.5-2.3-1.5-2.3
			c-1,0-1.8,0.7-1.8,2.4V48h-4.8V35.5z"/>
		<path class="st2" d="M339.3,41.9c0-4.2,2.5-6.7,6.6-6.7c4.4,0,6.2,2.9,6.2,6.5c0,0.5,0,0.9-0.1,1.5h-8.1c0.2,1.5,1.2,2.1,2.7,2.1
			c1.2,0,2-0.4,2.5-1.3l2.8,1.8c-1.1,1.8-3.1,2.7-5.7,2.7C342,48.4,339.3,46.3,339.3,41.9z M343.8,40.5h3.9c-0.1-1.3-0.7-2-1.8-2
			C344.8,38.4,344,39.1,343.8,40.5z"/>
	</g>
</g>
</svg>
