<?xml version="1.0" encoding="utf-8"?>
<!-- Generator: Adobe Illustrator 21.0.0, SVG Export Plug-In . SVG Version: 6.00 Build 0)  -->
<svg version="1.1" id="Vrstva_1" xmlns="http://www.w3.org/2000/svg" xmlns:xlink="http://www.w3.org/1999/xlink" x="0px" y="0px"
	 viewBox="0 0 160 110" style="enable-background:new 0 0 160 110;" xml:space="preserve">
<style type="text/css">
	.st0{fill:#EE3124;}
	.st1{fill:#00FF00;}
	.st2{fill:#00BA00;}
	.st3{fill:#506E8A;}
	.st4{fill:#FFFFFF;}
	.st5{fill:#BAE7F7;}
	.st6{clip-path:url(#SVGID_2_);fill:#BAE7F7;}
	@keyframes santa-head {
		0% {
			transform: translateY(0px);
		}

		100% {
			transform: translateY(4px);
		}
	}

	#santaHead {
		animation-name: santa-head;
		animation-duration: 1s;
		animation-iteration-count: infinite;
		animation-timing-function: ease-in-out;
		animation-direction: alternate;
	}
</style>
<g>
	<g>
		<g>
			<path class="st0" d="M126.7,29.6h-13c-1.3,0-2.4-0.8-2.8-2c-0.5-1.8-1.8-7.9,1.1-11c1.3-1.3,3.1-1.9,5.2-1.6
				c7.1,1,11.5,9.8,12,10.8c0.4,0.8,0.3,1.8-0.2,2.6C128.6,29.1,127.7,29.6,126.7,29.6z M116.2,24.2h5.5c-1.4-1.8-3.3-3.6-5.2-3.8
				c-0.1,0-0.1,0-0.2,0C116,20.9,115.9,22.5,116.2,24.2z"/>
			<path class="st0" d="M141.3,29.6h-13c-1,0-1.9-0.5-2.4-1.2c-0.5-0.8-0.6-1.8-0.2-2.6c0.5-1,4.9-9.7,12-10.8
				c2.1-0.3,3.9,0.3,5.2,1.6c2.9,3.1,1.6,9.2,1.1,11C143.7,28.8,142.6,29.6,141.3,29.6z M133.4,24.2h5.5c0.2-1.7,0.2-3.3-0.2-3.9
				c0,0-0.1,0-0.2,0C136.7,20.6,134.8,22.3,133.4,24.2z"/>
		</g>
		<g>
			<rect x="107.3" y="29.8" class="st1" width="40.4" height="35.1"/>
			<rect x="107.3" y="36.8" class="st2" width="40.4" height="8"/>
			<rect x="105" y="27.8" class="st1" width="45" height="12.3"/>
			<rect x="124.7" y="27" class="st0" width="5.7" height="37.9"/>
		</g>
	</g>
	<ellipse class="st0" cx="71.1" cy="54.2" rx="26.7" ry="26.8"/>
	<g>
		<path class="st3" d="M146.8,92.5H19.7c-4.8,0-7.8-5.3-5.3-9.4l25.5-33H153v36.2C153,89.7,150.3,92.5,146.8,92.5z"/>
		<path class="st3" d="M158.6,106.5H12.9c-3.2,0-6-1.6-7.6-4.4c-1.6-2.8-1.5-6.1,0.1-8.8l4.3,2.5C9,97,9,98.4,9.6,99.6
			c0.7,1.2,1.9,1.9,3.2,1.9h145.8V106.5z"/>
		<rect x="36.1" y="92.1" class="st3" width="5" height="10.6"/>
		<rect x="125.7" y="92.1" class="st3" width="5" height="10.6"/>
	</g>
	<g id="santaHead">
		<path class="st4" d="M86.9,47.7c0,8.8-7.1,15.9-15.8,15.9s-15.8-7.1-15.8-15.9V19.7h31.6V47.7z"/>
		<path class="st5" d="M86.9,20.8c0,8.8-7.1,15.9-15.8,15.9s-15.8-7.1-15.8-15.9v-6.1h31.6V20.8z"/>
		<path class="st0" d="M52.5,20.7C52.5,10.4,60.8,2,71.1,2s18.6,8.4,18.6,18.7"/>
		<ellipse class="st3" cx="65" cy="26.6" rx="2" ry="2"/>
		<ellipse class="st3" cx="75.6" cy="26.6" rx="2" ry="2"/>
		<ellipse class="st4" cx="95.8" cy="27.6" rx="6.5" ry="6.5"/>
	</g>
	<g>
		<defs>
			<path id="SVGID_1_" d="M146.8,92.5H19.7c-4.8,0-7.8-5.3-5.3-9.4l25.5-33H153v36.2C153,89.7,150.3,92.5,146.8,92.5z"/>
		</defs>
		<clipPath id="SVGID_2_">
			<use xlink:href="#SVGID_1_"  style="overflow:visible;"/>
		</clipPath>
		<rect x="1.2" y="83.6" class="st6" width="161.7" height="28.3"/>
	</g>
</g>
</svg>
