<?xml version="1.0" encoding="utf-8"?>
<!-- Generator: Adobe Illustrator 21.0.0, SVG Export Plug-In . SVG Version: 6.00 Build 0)  -->
<svg version="1.1" id="Vrstva_1" xmlns="http://www.w3.org/2000/svg" xmlns:xlink="http://www.w3.org/1999/xlink" x="0px" y="0px"
	 viewBox="0 0 300 110" style="enable-background:new 0 0 300 110;" xml:space="preserve">
<style type="text/css">
	.st0{fill:none;stroke:#EE3124;stroke-width:5.652;stroke-linejoin:round;stroke-miterlimit:10;}
	.st1{fill:#00FF00;}
	.st2{fill:#00BA00;}
	.st3{fill:#EE3124;}
	.st4{fill:#506E8A;}
	.st5{fill:none;stroke:#506E8A;stroke-width:4.9777;stroke-linejoin:round;stroke-miterlimit:10;}
	.st6{fill:#FFFFFF;}
	.st7{fill:#BAE7F7;}
	.st8{clip-path:url(#SVGID_2_);fill:#BAE7F7;}
</style>
<g>
	<g>
		<g>
			<path class="st0" d="M194.6,24.8h-12.9c0,0-2.6-10.5,3.1-9.6C190.6,16.1,194.6,24.8,194.6,24.8z"/>
			<path class="st0" d="M196.2,24.8H209c0,0,2.6-10.5-3.1-9.6C200.2,16.1,196.2,24.8,196.2,24.8z"/>
		</g>
		<g>
			<rect x="175.3" y="27.9" class="st1" width="40.2" height="36.6"/>
			<rect x="175.3" y="35.2" class="st2" width="40.2" height="8.4"/>
			<rect x="173" y="25.7" class="st1" width="44.7" height="12.8"/>
			<line class="st0" x1="195.4" y1="24.9" x2="195.4" y2="65"/>
		</g>
	</g>
	<ellipse class="st3" cx="139" cy="52.7" rx="26.7" ry="26.8"/>
	<g>
		<path class="st4" d="M214.7,91H87.6c-4.8,0-7.8-5.3-5.3-9.4l25.5-33h113.2v36.2C220.9,88.2,218.1,91,214.7,91z"/>
		<path class="st5" d="M226.5,103.5H80.7c-4.8,0-7.8-5.3-5.3-9.4"/>
		<line class="st5" x1="106.5" y1="90.6" x2="106.5" y2="102.2"/>
		<line class="st5" x1="196" y1="90.6" x2="196" y2="102.2"/>
	</g>
	<path class="st6" d="M154.8,46.2c0,8.8-7.1,15.9-15.8,15.9s-15.8-7.1-15.8-15.9V18.2h31.6V46.2z"/>
	<path class="st7" d="M154.8,19.3c0,8.8-7.1,15.9-15.8,15.9s-15.8-7.1-15.8-15.9v-6.1h31.6V19.3z"/>
	<path class="st3" d="M120.3,19.2c0-10.3,8.3-18.7,18.6-18.7s18.6,8.4,18.6,18.7"/>
	<ellipse class="st4" cx="132.9" cy="25.1" rx="2" ry="2"/>
	<ellipse class="st4" cx="143.4" cy="25.1" rx="2" ry="2"/>
	<ellipse class="st6" cx="163.6" cy="26.1" rx="6.5" ry="6.5"/>
	<g>
		<defs>
			<path id="SVGID_1_" d="M214.7,91H87.6c-4.8,0-7.8-5.3-5.3-9.4l25.5-33h113.2v36.2C220.9,88.2,218.1,91,214.7,91z"/>
		</defs>
		<clipPath id="SVGID_2_">
			<use xlink:href="#SVGID_1_"  style="overflow:visible;"/>
		</clipPath>
		<rect x="69.1" y="82.1" class="st8" width="161.7" height="28.3"/>
	</g>
</g>
<g>
	<g>
		<g>
			<path class="st0" d="M24.1,66.3H11.3c0,0-2.6-10.5,3.1-9.6S24.1,66.3,24.1,66.3z"/>
			<path class="st0" d="M25.7,66.3h12.9c0,0,2.6-10.5-3.1-9.6S25.7,66.3,25.7,66.3z"/>
		</g>
		<g>
			<rect x="4.8" y="69.4" class="st1" width="40.2" height="36.6"/>
			<rect x="4.8" y="76.6" class="st2" width="40.2" height="8.4"/>
			<rect x="2.5" y="67.2" class="st1" width="44.7" height="12.8"/>
			<line class="st0" x1="24.9" y1="66.4" x2="24.9" y2="106"/>
		</g>
	</g>
	<g>
		<g>
			<path class="st0" d="M275.3,66.3h-12.9c0,0-2.6-10.5,3.1-9.6S275.3,66.3,275.3,66.3z"/>
			<path class="st0" d="M276.9,66.3h12.9c0,0,2.6-10.5-3.1-9.6S276.9,66.3,276.9,66.3z"/>
		</g>
		<g>
			<rect x="256" y="69.4" class="st1" width="40.2" height="36.6"/>
			<rect x="256" y="76.6" class="st2" width="40.2" height="8.4"/>
			<rect x="253.7" y="67.2" class="st1" width="44.7" height="12.8"/>
			<line class="st0" x1="276.1" y1="66.4" x2="276.1" y2="106"/>
		</g>
	</g>
</g>
</svg>
