<?xml version="1.0" encoding="utf-8"?>
<!-- Generator: Adobe Illustrator 21.0.0, SVG Export Plug-In . SVG Version: 6.00 Build 0)  -->
<svg version="1.1" id="Vrstva_1" xmlns="http://www.w3.org/2000/svg" xmlns:xlink="http://www.w3.org/1999/xlink" x="0px" y="0px"
	 viewBox="0 0 45 45" style="enable-background:new 0 0 45 45;" xml:space="preserve">
<style type="text/css">
	.st0{fill:#506E8A;}
</style>
<g>
	<path class="st0" d="M24.1,6.4c-0.4-0.2-0.9-0.1-1.2,0.2L13.2,15H4c-0.6,0-1.1,0.5-1.1,1.1v11.3c0,0.6,0.5,1.1,1.1,1.1h9l9.9,8.6
		c0.2,0.2,0.5,0.3,0.7,0.3c0.2,0,0.3,0,0.5-0.1c0.4-0.2,0.6-0.6,0.6-1V7.4C24.8,7,24.5,6.6,24.1,6.4z"/>
	<path class="st0" d="M28.2,14.6c-0.5,0.3-0.7,1-0.3,1.5c1.1,1.7,1.7,3.7,1.7,5.8c0,2-0.6,4-1.6,5.7c-0.3,0.5-0.2,1.2,0.4,1.5
		c0.2,0.1,0.4,0.2,0.6,0.2c0.4,0,0.7-0.2,0.9-0.5c1.3-2.1,2-4.4,2-6.9c0-2.5-0.7-4.9-2-7C29.4,14.4,28.7,14.3,28.2,14.6z"/>
	<path class="st0" d="M33.8,10.7c-0.4-0.5-1.1-0.6-1.5-0.2c-0.5,0.4-0.6,1.1-0.2,1.5c2.1,2.9,3.3,6.3,3.3,9.9c0,3.5-1.1,6.9-3.2,9.8
		c-0.4,0.5-0.3,1.2,0.2,1.5c0.2,0.1,0.4,0.2,0.7,0.2c0.3,0,0.7-0.2,0.9-0.5c2.4-3.2,3.6-7.1,3.6-11.1C37.5,17.8,36.2,14,33.8,10.7z"
		/>
	<path class="st0" d="M37.6,6.9c-0.4-0.5-1.1-0.6-1.6-0.2c-0.5,0.4-0.6,1.1-0.2,1.6c3.1,3.9,4.8,8.7,4.8,13.7c0,5-1.6,9.7-4.7,13.6
		c-0.4,0.5-0.3,1.2,0.2,1.6c0.2,0.2,0.4,0.2,0.7,0.2c0.3,0,0.6-0.1,0.9-0.4c3.4-4.3,5.2-9.5,5.2-15C42.9,16.4,41.1,11.2,37.6,6.9z"
		/>
</g>
</svg>
