<?xml version="1.0" encoding="utf-8"?>
<!-- Generator: Adobe Illustrator 21.0.0, SVG Export Plug-In . SVG Version: 6.00 Build 0)  -->
<svg version="1.1" id="Vrstva_1" xmlns="http://www.w3.org/2000/svg" xmlns:xlink="http://www.w3.org/1999/xlink" x="0px" y="0px"
	 viewBox="0 0 905 140" style="enable-background:new 0 0 905 140;" xml:space="preserve">
<style type="text/css">
	.st0{fill:#506E8A;}
	.st1{fill:#00FF00;}
	.st2{fill:#00FFFF;}
	.st3{fill:#EE3124;}
</style>
<g>
	<g>
		<g>
			<polygon class="st0" points="118.8,85.7 145,3.9 171.2,85.7 			"/>
			<polygon class="st0" points="118.8,105 145,23.2 171.2,105 			"/>
			<polygon class="st0" points="118.8,124.3 145,42.5 171.2,124.3 			"/>
			<rect x="139.8" y="117.3" class="st0" width="10.4" height="19.3"/>
		</g>
		<g>
			<g>
				<polygon class="st0" points="13.1,85.7 39.3,3.9 65.5,85.7 				"/>
				<polygon class="st0" points="13.1,105 39.3,23.2 65.5,105 				"/>
				<polygon class="st0" points="13.1,124.3 39.3,42.5 65.5,124.3 				"/>
				<rect x="34.1" y="117.3" class="st0" width="10.4" height="19.3"/>
			</g>
			<circle class="st1" cx="26.7" cy="59" r="6.7"/>
			<circle class="st2" cx="30.7" cy="95" r="6.7"/>
			<circle class="st3" cx="57.1" cy="77.3" r="6.7"/>
		</g>
	</g>
	<g>
		<g>
			<polygon class="st0" points="733.1,85.7 759.3,3.9 785.5,85.7 			"/>
			<polygon class="st0" points="733.1,105 759.3,23.2 785.5,105 			"/>
			<polygon class="st0" points="733.1,124.3 759.3,42.5 785.5,124.3 			"/>
			<rect x="754.1" y="117.3" class="st0" width="10.4" height="19.3"/>
		</g>
		<g>
			<polygon class="st0" points="838.8,85.7 864.9,3.9 891.1,85.7 			"/>
			<polygon class="st0" points="838.8,105 864.9,23.2 891.1,105 			"/>
			<polygon class="st0" points="838.8,124.3 864.9,42.5 891.1,124.3 			"/>
			<rect x="859.7" y="117.3" class="st0" width="10.4" height="19.3"/>
		</g>
		<g>
			<circle class="st1" cx="879.1" cy="59" r="6.7"/>
			<circle class="st2" cx="875.1" cy="95" r="6.7"/>
			<circle class="st3" cx="848.7" cy="77.3" r="6.7"/>
		</g>
	</g>
</g>
</svg>
